<svg width="268" height="243" viewBox="0 0 268 243" fill="none" xmlns="http://www.w3.org/2000/svg">
<path fill-rule="evenodd" clip-rule="evenodd" d="M40.352 163.981C40.8718 165.595 41.3916 167.208 41.5613 169.038C41.9669 172.414 41.5873 175.308 41.5209 175.591C41.4621 180.946 41.4033 186.301 45.7645 189.413C48.3377 191.21 51.5928 191.377 54.4977 191.761C105.945 194.587 157.728 187.052 205.824 169.703C209.127 168.391 212.781 166.862 214.93 164.085C219.077 157.899 213.856 149.515 216.149 142.298C219.455 132.037 234.861 131.476 241.375 122.863C245.872 116.461 244.541 108.095 242.727 100.511C238.324 80.9839 233.222 61.8893 227.201 42.8776C162.369 52.4209 98.1111 67.17 35.4796 86.4767C31.6089 87.6563 27.388 89.0522 24.5385 92.2612C20.1555 96.9 20.5502 104.152 21.4278 110.621C22.8437 119.902 25.2438 128.818 28.6282 137.367L29.6494 139.397C30.2356 140.727 31.0393 142.407 31.6255 143.738L39.1132 161.603C39.6146 162.019 40.0496 162.717 40.352 163.981Z" fill="#174972"/>
<path fill-rule="evenodd" clip-rule="evenodd" d="M56.6394 198.077C53.6802 200.745 48.8838 201.301 45.0765 200.127C40.9304 199.154 36.8196 196.788 34.527 192.888C32.1721 189.253 32.126 184.479 34.6569 181.15C35.2206 187.447 40.4913 192.326 45.6726 196.344C46.6536 197.135 47.6345 197.925 48.7402 198.185C51.1655 199.034 54.0894 197.759 56.6394 198.077Z" fill="#174972"/>
<path fill-rule="evenodd" clip-rule="evenodd" d="M237.087 130.556C243.514 130.311 249.818 125.654 252.136 119.477C254.454 113.301 252.446 105.817 247.738 101.205C249.652 106.622 249.659 112.76 247.536 118.106C245.413 123.452 241.16 128.005 235.715 130.234C236.264 130.363 236.812 130.492 237.087 130.556Z" fill="#174972"/>
<path d="M67.6836 110.509L66.8523 107.068C66.7384 106.596 66.5393 106.174 66.255 105.803C65.9768 105.422 65.6441 105.113 65.257 104.876C64.8699 104.64 64.4433 104.485 63.9771 104.411C63.517 104.327 63.051 104.342 62.5794 104.456C62.1077 104.57 61.6822 104.77 61.3029 105.056C60.9297 105.332 60.6248 105.663 60.3883 106.05C60.1518 106.437 59.9928 106.865 59.9113 107.333C59.8358 107.791 59.855 108.256 59.969 108.727L60.8002 112.169L67.6836 110.509ZM72.7849 116.55L69.3432 117.38L68.512 113.938L61.6286 115.598L62.4599 119.039L59.0302 119.866L56.5393 109.554C56.3095 108.603 56.2741 107.668 56.433 106.75C56.59 105.824 56.901 104.975 57.366 104.203C57.8389 103.429 58.4477 102.762 59.1922 102.202C59.9448 101.64 60.7967 101.244 61.7481 101.015C62.6995 100.785 63.6343 100.75 64.5526 100.909C65.479 101.067 66.3292 101.382 67.1034 101.855C67.8776 102.328 68.546 102.941 69.1085 103.694C69.669 104.438 70.0642 105.286 70.294 106.238L72.7849 116.55ZM94.7181 111.261L93.9267 111.452L92.2297 109.996C91.9855 110.351 91.7175 110.694 91.4256 111.027C91.1397 111.35 90.8271 111.649 90.4878 111.926C90.1466 112.194 89.7846 112.429 89.402 112.632C89.0274 112.832 88.6322 112.982 88.2165 113.082C87.3131 113.3 86.4211 113.338 85.5405 113.195C84.666 113.042 83.8566 112.738 83.1122 112.283C82.3738 111.818 81.7333 111.215 81.1907 110.475C80.6461 109.727 80.256 108.865 80.0204 107.889C79.7868 106.922 79.7414 105.981 79.8844 105.067C80.0273 104.153 80.3212 103.321 80.7661 102.571C81.2189 101.818 81.7996 101.175 82.508 100.64C83.2244 100.104 84.0343 99.7268 84.9377 99.509C85.2255 99.4396 85.5271 99.3922 85.8425 99.3669C86.1659 99.3397 86.485 99.3473 86.7998 99.3899C87.1207 99.4225 87.4303 99.4958 87.7287 99.61C88.027 99.7242 88.2949 99.888 88.5326 100.101L87.0844 94.106L90.3822 93.3108L94.7181 111.261ZM89.8418 105.521C89.7337 105.074 89.5415 104.663 89.2652 104.29C88.9949 103.907 88.6733 103.591 88.3003 103.342C87.9253 103.086 87.5148 102.91 87.0687 102.815C86.6287 102.709 86.1848 102.71 85.7371 102.818C85.2894 102.926 84.885 103.108 84.5239 103.365C84.1708 103.619 83.883 103.934 83.6606 104.309C83.4443 104.674 83.3043 105.093 83.2406 105.565C83.177 106.037 83.2109 106.545 83.3422 107.088C83.4561 107.56 83.6482 107.987 83.9184 108.371C84.1886 108.754 84.5063 109.071 84.8713 109.321C85.2444 109.569 85.6489 109.738 86.0851 109.828C86.5292 109.915 86.9752 109.905 87.4229 109.797C87.8706 109.689 88.2671 109.492 88.6125 109.206C88.9639 108.909 89.249 108.566 89.4675 108.175C89.6842 107.776 89.8262 107.348 89.8937 106.892C89.9672 106.426 89.9499 105.969 89.8418 105.521ZM97.1409 93.3941C97.2143 93.6979 97.2229 93.9961 97.1667 94.2888C97.1185 94.5796 97.0186 94.849 96.867 95.0971C96.7135 95.3371 96.5153 95.5499 96.2724 95.7353C96.0356 95.9108 95.7653 96.0352 95.4615 96.1085C95.1578 96.1817 94.8564 96.1952 94.5576 96.1488C94.2648 96.0925 93.9953 95.9925 93.7491 95.8489C93.5089 95.6953 93.2971 95.5011 93.1134 95.2662C92.9378 95.0294 92.8133 94.7591 92.7399 94.4553C92.6684 94.1596 92.6568 93.8663 92.705 93.5755C92.7593 93.2748 92.8592 93.0054 93.0047 92.7673C93.1563 92.5192 93.3505 92.3074 93.5873 92.1319C93.8301 91.9465 94.1035 91.8171 94.4073 91.7439C94.7111 91.6706 95.0093 91.6621 95.3021 91.7184C95.601 91.7648 95.8745 91.8638 96.1226 92.0155C96.3688 92.1591 96.5807 92.3533 96.7583 92.5981C96.9419 92.833 97.0695 93.0983 97.1409 93.3941ZM100.522 109.861L97.2244 110.657L94.1224 97.8145L97.4202 97.0193L100.522 109.861ZM107.19 108.254L103.916 109.043L101.602 99.4625L100.007 99.8471L99.2189 96.5856L100.814 96.201L100.666 95.5895C100.475 94.7981 100.443 94.019 100.571 93.2522C100.707 92.4835 100.973 91.7807 101.369 91.1438C101.771 90.4969 102.284 89.9418 102.908 89.4783C103.53 89.0068 104.237 88.6757 105.029 88.4848L107.487 87.892L108.275 91.1535L105.817 91.7463C105.465 91.8311 105.152 91.9741 104.88 92.1753C104.613 92.3665 104.394 92.601 104.225 92.8788C104.061 93.1467 103.952 93.448 103.897 93.7826C103.841 94.1092 103.855 94.4484 103.94 94.8001L104.088 95.4116L108.105 94.4429L108.893 97.7044L104.875 98.6731L107.19 108.254ZM116.927 105.906L113.653 106.695L111.339 97.1145L109.744 97.4991L108.956 94.2376L110.551 93.853L110.404 93.2415C110.212 92.4501 110.181 91.671 110.309 90.9042C110.444 90.1355 110.71 89.4327 111.106 88.7958C111.508 88.149 112.022 87.5938 112.646 87.1303C113.268 86.6589 113.975 86.3277 114.766 86.1368L117.224 85.5441L118.012 88.8056L115.554 89.3983C115.202 89.4831 114.89 89.6261 114.617 89.8273C114.35 90.0185 114.132 90.253 113.962 90.5308C113.798 90.7987 113.689 91.1 113.635 91.4346C113.578 91.7612 113.592 92.1004 113.677 92.4521L113.825 93.0636L117.842 92.0949L118.63 95.3564L114.613 96.3251L116.927 105.906ZM126.613 100.246C126.751 100.255 126.885 100.252 127.017 100.237C127.147 100.214 127.276 100.187 127.404 100.156C127.724 100.079 128.021 99.9611 128.295 99.8019C128.57 99.6426 128.816 99.4522 129.033 99.2306C129.256 98.9992 129.44 98.7434 129.584 98.4634C129.734 98.1735 129.838 97.8692 129.896 97.5506L132.877 99.3824C132.677 99.8873 132.419 100.36 132.102 100.8C131.794 101.238 131.437 101.633 131.031 101.985C130.633 102.334 130.193 102.631 129.71 102.874C129.237 103.123 128.733 103.313 128.198 103.442C127.294 103.66 126.402 103.697 125.522 103.554C124.649 103.409 123.841 103.109 123.096 102.654C122.36 102.198 121.72 101.599 121.177 100.858C120.633 100.11 120.241 99.2401 120.001 98.2488C119.756 97.2336 119.704 96.2649 119.845 95.3426C119.986 94.4204 120.281 93.5922 120.73 92.858C121.186 92.1218 121.771 91.4945 122.483 90.9759C123.204 90.4554 124.015 90.0862 124.919 89.8684C125.454 89.7392 125.994 89.6769 126.536 89.6814C127.079 89.6859 127.607 89.7532 128.12 89.8831C128.642 90.0111 129.145 90.2028 129.63 90.4581C130.113 90.7055 130.558 91.0084 130.966 91.3668L126.613 100.246ZM126.661 93.09C126.496 93.0706 126.335 93.0713 126.18 93.0919C126.032 93.1106 125.878 93.1393 125.718 93.1778C125.27 93.2858 124.867 93.4719 124.508 93.7361C124.155 93.9905 123.867 94.3052 123.645 94.6803C123.43 95.0534 123.291 95.4761 123.227 95.9482C123.162 96.4124 123.194 96.9123 123.323 97.4479C123.352 97.5678 123.389 97.7027 123.434 97.8526C123.486 98.0007 123.544 98.1517 123.607 98.3058C123.675 98.45 123.747 98.5892 123.822 98.7235C123.896 98.8577 123.979 98.9731 124.07 99.0696L126.661 93.09ZM138.441 100.718L135.167 101.508L132.065 88.6655L132.856 88.4747L134.303 89.7372C134.715 89.1304 135.226 88.6181 135.836 88.2004C136.444 87.7746 137.107 87.475 137.827 87.3015L140.717 86.6046L141.505 89.8661L138.615 90.563C138.271 90.6459 137.962 90.7879 137.69 90.9891C137.417 91.1902 137.195 91.4297 137.025 91.7075C136.856 91.9853 136.744 92.2915 136.689 92.6261C136.634 92.9607 136.649 93.2999 136.732 93.6437L138.441 100.718ZM149.446 94.74C149.583 94.7491 149.718 94.7462 149.85 94.7314C149.98 94.7085 150.109 94.6817 150.236 94.6508C150.556 94.5737 150.853 94.4555 151.128 94.2963C151.403 94.137 151.648 93.9466 151.866 93.725C152.089 93.4936 152.273 93.2378 152.416 92.9578C152.566 92.6679 152.67 92.3636 152.729 92.045L155.709 93.8768C155.51 94.3817 155.252 94.8542 154.935 95.2943C154.626 95.7325 154.269 96.1274 153.863 96.4791C153.466 96.8288 153.025 97.1253 152.543 97.3685C152.07 97.6179 151.566 97.8071 151.03 97.9363C150.127 98.1541 149.235 98.1916 148.354 98.0486C147.482 97.9037 146.673 97.6038 145.929 97.1488C145.192 96.6919 144.553 96.0932 144.01 95.3528C143.466 94.6043 143.074 93.7345 142.834 92.7432C142.589 91.728 142.537 90.7593 142.678 89.837C142.819 88.9148 143.114 88.0866 143.562 87.3524C144.019 86.6162 144.604 85.9889 145.316 85.4703C146.036 84.9498 146.848 84.5806 147.751 84.3628C148.287 84.2336 148.826 84.1713 149.369 84.1758C149.911 84.1803 150.439 84.2476 150.953 84.3775C151.475 84.5055 151.978 84.6972 152.462 84.9525C152.945 85.1999 153.391 85.5028 153.799 85.8612L149.446 94.74ZM149.494 87.5843C149.329 87.565 149.168 87.5657 149.012 87.5863C148.865 87.605 148.711 87.6337 148.551 87.6722C148.103 87.7802 147.7 87.9663 147.34 88.2305C146.987 88.4849 146.7 88.7996 146.477 89.1747C146.263 89.5478 146.124 89.9705 146.06 90.4426C145.995 90.9068 146.026 91.4067 146.156 91.9423C146.185 92.0622 146.222 92.1971 146.266 92.347C146.319 92.4951 146.377 92.6461 146.439 92.8002C146.508 92.9444 146.58 93.0836 146.654 93.2179C146.729 93.3521 146.812 93.4675 146.903 93.564L149.494 87.5843ZM161.273 95.2126L157.999 96.002L154.897 83.1599L155.689 82.9691L157.069 83.9559C157.481 83.349 157.988 82.8377 158.59 82.4219C159.198 81.9961 159.865 81.6956 160.593 81.5201C161.376 81.3312 162.152 81.3048 162.921 81.4408C163.688 81.5689 164.395 81.8341 165.042 82.2364C165.688 82.6307 166.243 83.1439 166.709 83.776C167.18 84.3982 167.512 85.105 167.703 85.8964L169.476 93.2347L166.202 94.0242L164.429 86.6858C164.348 86.3501 164.208 86.0497 164.009 85.7848C163.807 85.5119 163.568 85.2905 163.29 85.1206C163.012 84.9508 162.71 84.8376 162.383 84.781C162.056 84.7244 161.725 84.7366 161.389 84.8176C161.045 84.9005 160.737 85.0425 160.464 85.2437C160.191 85.4448 159.97 85.6843 159.8 85.9621C159.63 86.2399 159.518 86.5461 159.464 86.8807C159.407 87.2073 159.42 87.5385 159.501 87.8743L161.273 95.2126ZM178.086 91.1586C177.294 91.3494 176.515 91.3808 175.748 91.2528C174.979 91.1167 174.268 90.8525 173.615 90.4601C172.968 90.0578 172.409 89.5456 171.937 88.9234C171.473 88.2992 171.146 87.5915 170.954 86.8001L170.033 82.987L168.438 83.3716L167.651 80.1101L169.246 79.7255L168.006 74.5935L171.268 73.807L172.507 78.939L177.472 77.7419L178.26 81.0034L173.295 82.2005L174.216 86.0136C174.299 86.3573 174.441 86.6656 174.643 86.9386C174.842 87.2035 175.081 87.4209 175.359 87.5907C175.636 87.7606 175.944 87.8768 176.28 87.9395C176.615 87.9941 176.954 87.98 177.298 87.8971L179.78 87.2985L180.568 90.56L178.086 91.1586Z" fill="white"/>
<path d="M72.6858 146.189L65.2029 147.994L64.415 144.732L71.898 142.928C72.1218 142.874 72.2944 142.748 72.4157 142.549C72.537 142.351 72.5706 142.14 72.5165 141.916C72.4605 141.684 72.3439 141.551 72.1666 141.518C71.9893 141.485 71.7888 141.495 71.5649 141.549L68.1592 142.37C67.5916 142.507 67.0339 142.527 66.4861 142.431C65.9383 142.335 65.4361 142.147 64.9795 141.868C64.521 141.581 64.124 141.216 63.7884 140.772C63.4608 140.326 63.2285 139.82 63.0914 139.252C62.9543 138.685 62.9298 138.128 63.0179 137.582C63.1141 137.035 63.3016 136.533 63.5805 136.076C63.8595 135.62 64.2217 135.228 64.6671 134.901C65.1107 134.565 65.6162 134.329 66.1839 134.192L72.8154 132.593L73.6032 135.855L66.9717 137.454C66.7478 137.508 66.5753 137.634 66.454 137.832C66.3327 138.031 66.2991 138.242 66.3532 138.466C66.4092 138.698 66.5374 138.878 66.7378 139.008C66.9364 139.129 67.1475 139.163 67.3714 139.109L70.7771 138.287C71.3367 138.152 71.8875 138.121 72.4295 138.193C72.9696 138.258 73.4641 138.414 73.9129 138.661C74.3618 138.908 74.7511 139.241 75.0809 139.661C75.4107 140.08 75.6431 140.57 75.7783 141.129C75.9154 141.697 75.9359 142.254 75.8397 142.802C75.7417 143.342 75.5541 143.844 75.2771 144.308C74.9982 144.765 74.637 145.16 74.1934 145.496C73.748 145.823 73.2454 146.054 72.6858 146.189ZM89.347 135.256C89.5787 136.215 89.6231 137.152 89.4801 138.066C89.3352 138.973 89.0404 139.801 88.5955 140.551C88.1487 141.293 87.5681 141.937 86.8536 142.481C86.1452 143.016 85.3353 143.393 84.4239 143.613C83.5205 143.831 82.6275 143.864 81.745 143.713C80.8686 143.552 80.0582 143.244 79.3138 142.789C78.5754 142.324 77.9349 141.722 77.3923 140.981C76.8477 140.233 76.4595 139.379 76.2278 138.42C75.9922 137.444 75.9459 136.5 76.0889 135.585C76.2318 134.671 76.5267 133.843 76.9735 133.101C77.4263 132.349 78.007 131.705 78.7154 131.171C79.4318 130.634 80.2417 130.257 81.1451 130.039C82.0565 129.819 82.9475 129.778 83.8182 129.915C84.6949 130.042 85.5014 130.334 86.2378 130.791C86.9723 131.24 87.6128 131.842 88.1594 132.599C88.7039 133.347 89.0998 134.233 89.347 135.256ZM86.0492 136.051C85.9218 135.524 85.7189 135.069 85.4407 134.688C85.1685 134.297 84.8479 133.985 84.4787 133.753C84.1076 133.512 83.7029 133.36 83.2645 133.297C82.8322 133.223 82.3922 133.241 81.9445 133.349C81.4968 133.457 81.0934 133.643 80.7342 133.907C80.3811 134.161 80.0943 134.48 79.8738 134.863C79.6594 135.236 79.5204 135.659 79.4567 136.131C79.3912 136.595 79.4221 137.091 79.5496 137.619C79.6693 138.114 79.8643 138.554 80.1345 138.937C80.4047 139.32 80.7214 139.633 81.0845 139.875C81.4556 140.116 81.8592 140.281 82.2954 140.37C82.7376 140.449 83.1826 140.435 83.6303 140.327C84.078 140.219 84.4774 140.034 84.8286 139.772C85.1878 139.508 85.4786 139.188 85.701 138.813C85.9234 138.438 86.0664 138.014 86.1301 137.542C86.2017 137.068 86.1747 136.571 86.0492 136.051ZM101.812 137.58C101.606 137.883 101.377 138.18 101.126 138.469C100.88 138.748 100.613 139.007 100.323 139.246C100.032 139.477 99.7215 139.679 99.391 139.851C99.0704 140.03 98.7302 140.163 98.3705 140.25C97.579 140.441 96.8017 140.48 96.0386 140.368C95.2755 140.256 94.5683 140.008 93.9171 139.623C93.2719 139.229 92.7086 138.701 92.2272 138.039C91.7518 137.366 91.4031 136.571 91.181 135.651L89.4664 128.553L92.7282 127.766L94.4428 134.865C94.5471 135.297 94.7047 135.669 94.9157 135.982C95.1327 136.285 95.3811 136.525 95.6609 136.703C95.9408 136.881 96.2431 136.994 96.5679 137.043C96.9006 137.089 97.2389 137.071 97.5826 136.988C97.9184 136.907 98.2159 136.755 98.475 136.532C98.7401 136.299 98.9538 136.027 99.1158 135.718C99.2779 135.408 99.3843 135.078 99.4349 134.727C99.4837 134.368 99.4665 134.017 99.3835 133.674L97.6688 126.575L100.943 125.786L104.045 138.628L103.253 138.819L101.812 137.58ZM109.825 137.234L106.551 138.023L103.449 125.181L104.24 124.99L105.621 125.977C106.033 125.37 106.539 124.859 107.141 124.443C107.749 124.018 108.417 123.717 109.144 123.542C109.928 123.353 110.704 123.326 111.473 123.462C112.24 123.59 112.947 123.855 113.594 124.258C114.239 124.652 114.794 125.165 115.26 125.797C115.732 126.42 116.063 127.126 116.255 127.918L118.027 135.256L114.753 136.046L112.981 128.707C112.9 128.371 112.76 128.071 112.56 127.806C112.359 127.533 112.119 127.312 111.841 127.142C111.563 126.972 111.261 126.859 110.934 126.802C110.608 126.746 110.277 126.758 109.941 126.839C109.597 126.922 109.289 127.064 109.016 127.265C108.743 127.466 108.521 127.706 108.352 127.984C108.182 128.261 108.07 128.568 108.015 128.902C107.959 129.229 107.971 129.56 108.052 129.896L109.825 137.234ZM132.777 131.699L131.986 131.89L130.289 130.434C130.045 130.789 129.777 131.133 129.485 131.466C129.199 131.788 128.886 132.088 128.547 132.364C128.206 132.633 127.844 132.868 127.461 133.07C127.087 133.27 126.691 133.421 126.276 133.521C125.372 133.739 124.48 133.776 123.6 133.633C122.725 133.48 121.916 133.176 121.171 132.722C120.433 132.257 119.792 131.654 119.25 130.914C118.705 130.165 118.315 129.303 118.08 128.328C117.846 127.361 117.801 126.42 117.944 125.506C118.087 124.591 118.38 123.759 118.825 123.009C119.278 122.257 119.859 121.614 120.567 121.079C121.284 120.542 122.094 120.165 122.997 119.947C123.285 119.878 123.586 119.831 123.902 119.805C124.225 119.778 124.544 119.786 124.859 119.828C125.18 119.861 125.49 119.934 125.788 120.049C126.086 120.163 126.354 120.327 126.592 120.54L125.144 114.545L128.441 113.749L132.777 131.699ZM127.901 125.96C127.793 125.512 127.601 125.102 127.324 124.728C127.054 124.345 126.732 124.029 126.359 123.781C125.984 123.524 125.574 123.349 125.128 123.253C124.688 123.148 124.244 123.149 123.796 123.257C123.349 123.365 122.944 123.547 122.583 123.803C122.23 124.058 121.942 124.372 121.72 124.747C121.503 125.113 121.363 125.531 121.3 126.003C121.236 126.476 121.27 126.983 121.401 127.527C121.515 127.999 121.707 128.426 121.978 128.809C122.248 129.192 122.565 129.509 122.93 129.76C123.304 130.008 123.708 130.177 124.144 130.266C124.588 130.354 125.034 130.343 125.482 130.236C125.93 130.128 126.326 129.93 126.672 129.644C127.023 129.348 127.308 129.004 127.527 128.613C127.743 128.214 127.885 127.786 127.953 127.33C128.026 126.864 128.009 126.407 127.901 125.96Z" fill="white"/>
<path d="M76.7444 171.502C76.882 171.511 77.0167 171.508 77.1484 171.494C77.2783 171.471 77.4072 171.444 77.5351 171.413C77.8549 171.336 78.152 171.218 78.4266 171.059C78.7012 170.899 78.947 170.709 79.1643 170.487C79.3875 170.256 79.5711 170 79.715 169.72C79.8649 169.43 79.9691 169.126 80.0275 168.807L83.008 170.639C82.8085 171.144 82.5504 171.616 82.2337 172.057C81.925 172.495 81.5678 172.89 81.162 173.241C80.7642 173.591 80.324 173.888 79.8413 174.131C79.3685 174.38 78.8643 174.569 78.3287 174.699C77.4253 174.916 76.5333 174.954 75.6528 174.811C74.7802 174.666 73.9717 174.366 73.2273 173.911C72.4909 173.454 71.8513 172.856 71.3087 172.115C70.7641 171.367 70.3721 170.497 70.1327 169.505C69.8874 168.49 69.8353 167.522 69.9763 166.599C70.1174 165.677 70.4122 164.849 70.8609 164.115C71.3176 163.379 71.9021 162.751 72.6144 162.233C73.3347 161.712 74.1466 161.343 75.05 161.125C75.5856 160.996 76.1247 160.934 76.6672 160.938C77.2098 160.943 77.7379 161.01 78.2515 161.14C78.7731 161.268 79.2763 161.459 79.761 161.715C80.2437 161.962 80.6891 162.265 81.0972 162.623L76.7444 171.502ZM76.7926 164.347C76.6272 164.327 76.4666 164.328 76.3109 164.349C76.1631 164.367 76.0093 164.396 75.8494 164.434C75.4017 164.542 74.9982 164.729 74.6391 164.993C74.2859 165.247 73.9982 165.562 73.7757 165.937C73.5613 166.31 73.4223 166.733 73.3587 167.205C73.2931 167.669 73.325 168.169 73.4544 168.705C73.4834 168.824 73.5202 168.959 73.5649 169.109C73.6176 169.257 73.6752 169.408 73.7378 169.562C73.8065 169.707 73.8782 169.846 73.9529 169.98C74.0276 170.114 74.1105 170.23 74.2015 170.326L76.7926 164.347ZM88.7757 171.926L80.7809 160.263L84.5104 159.364L89.2513 166.697L90.1106 158.014L93.8521 157.112L92.0615 171.133L88.7757 171.926ZM102.167 165.372C102.305 165.381 102.44 165.378 102.571 165.363C102.701 165.341 102.83 165.314 102.958 165.283C103.278 165.206 103.575 165.088 103.849 164.928C104.124 164.769 104.37 164.579 104.587 164.357C104.81 164.126 104.994 163.87 105.138 163.59C105.288 163.3 105.392 162.996 105.45 162.677L108.431 164.509C108.231 165.014 107.973 165.486 107.657 165.926C107.348 166.365 106.991 166.76 106.585 167.111C106.187 167.461 105.747 167.757 105.264 168.001C104.791 168.25 104.287 168.439 103.752 168.568C102.848 168.786 101.956 168.824 101.076 168.681C100.203 168.536 99.3946 168.236 98.6502 167.781C97.9137 167.324 97.2742 166.725 96.7315 165.985C96.187 165.236 95.7949 164.367 95.5555 163.375C95.3103 162.36 95.2582 161.391 95.3992 160.469C95.5402 159.547 95.8351 158.719 96.2838 157.984C96.7405 157.248 97.325 156.621 98.0373 156.102C98.7576 155.582 99.5694 155.213 100.473 154.995C101.008 154.866 101.548 154.803 102.09 154.808C102.633 154.812 103.161 154.88 103.674 155.01C104.196 155.138 104.699 155.329 105.184 155.585C105.667 155.832 106.112 156.135 106.52 156.493L102.167 165.372ZM102.215 158.216C102.05 158.197 101.889 158.198 101.734 158.218C101.586 158.237 101.432 158.266 101.272 158.304C100.825 158.412 100.421 158.598 100.062 158.863C99.7088 159.117 99.421 159.432 99.1986 159.807C98.9842 160.18 98.8451 160.603 98.7815 161.075C98.716 161.539 98.7479 162.039 98.8773 162.574C98.9062 162.694 98.9431 162.829 98.9877 162.979C99.0404 163.127 99.0981 163.278 99.1607 163.432C99.2293 163.576 99.301 163.716 99.3758 163.85C99.4505 163.984 99.5333 164.1 99.6243 164.196L102.215 158.216ZM113.995 165.845L110.721 166.634L107.619 153.792L108.41 153.601L109.857 154.864C110.269 154.257 110.78 153.745 111.39 153.327C111.998 152.901 112.661 152.601 113.381 152.428L116.271 151.731L117.059 154.993L114.169 155.689C113.825 155.772 113.516 155.914 113.244 156.116C112.971 156.317 112.749 156.556 112.58 156.834C112.41 157.112 112.298 157.418 112.243 157.753C112.189 158.087 112.203 158.426 112.286 158.77L113.995 165.845ZM125.07 168.351L124.273 165.054L126.102 164.638C126.422 164.561 126.717 164.435 126.988 164.26C127.258 164.085 127.495 163.875 127.699 163.632C127.91 163.386 128.081 163.112 128.211 162.81C128.343 162.516 128.433 162.207 128.482 161.882C128.159 162.121 127.828 162.361 127.488 162.604C127.157 162.844 126.804 163.01 126.428 163.1C125.637 163.291 124.86 163.331 124.096 163.219C123.333 163.106 122.626 162.858 121.975 162.474C121.33 162.08 120.766 161.551 120.285 160.889C119.81 160.217 119.461 159.421 119.239 158.502L117.524 151.404L120.786 150.617L122.501 157.716C122.611 158.171 122.771 158.555 122.982 158.868C123.199 159.171 123.448 159.412 123.727 159.59C124.005 159.759 124.306 159.865 124.629 159.905C124.959 159.944 125.297 159.922 125.64 159.839C125.976 159.758 126.274 159.606 126.533 159.383C126.798 159.149 127.012 158.878 127.174 158.568C127.336 158.258 127.442 157.928 127.493 157.578C127.541 157.219 127.524 156.868 127.441 156.524L125.727 149.426L129.024 148.63L131.735 159.854C131.946 160.759 131.974 161.649 131.822 162.523C131.669 163.397 131.365 164.203 130.908 164.939C130.459 165.673 129.881 166.307 129.172 166.842C128.464 167.376 127.658 167.753 126.754 167.97L125.07 168.351ZM141.072 159.315C140.281 159.506 139.502 159.538 138.735 159.41C137.966 159.274 137.255 159.009 136.602 158.617C135.955 158.215 135.395 157.702 134.923 157.08C134.46 156.456 134.132 155.748 133.941 154.957L133.02 151.144L131.425 151.528L130.637 148.267L132.232 147.882L130.992 142.75L134.254 141.964L135.494 147.096L140.458 145.899L141.246 149.16L136.282 150.357L137.203 154.17C137.286 154.514 137.428 154.823 137.629 155.095C137.829 155.36 138.067 155.578 138.345 155.748C138.623 155.917 138.93 156.034 139.267 156.096C139.602 156.151 139.941 156.137 140.285 156.054L142.767 155.455L143.555 158.717L141.072 159.315ZM145.318 141.009C145.391 141.313 145.4 141.611 145.344 141.904C145.296 142.195 145.196 142.464 145.044 142.712C144.891 142.952 144.692 143.165 144.449 143.35C144.213 143.526 143.942 143.65 143.639 143.723C143.335 143.797 143.034 143.81 142.735 143.764C142.442 143.707 142.172 143.608 141.926 143.464C141.686 143.31 141.474 143.116 141.29 142.881C141.115 142.644 140.99 142.374 140.917 142.07C140.846 141.775 140.834 141.481 140.882 141.19C140.936 140.89 141.036 140.62 141.182 140.382C141.333 140.134 141.528 139.922 141.764 139.747C142.007 139.561 142.281 139.432 142.584 139.359C142.888 139.286 143.186 139.277 143.479 139.333C143.778 139.38 144.052 139.479 144.3 139.63C144.546 139.774 144.758 139.968 144.935 140.213C145.119 140.448 145.247 140.713 145.318 141.009ZM148.699 157.476L145.402 158.272L142.299 145.429L145.597 144.634L148.699 157.476ZM167.539 152.934L164.277 153.72L162.307 145.566C162.253 145.343 162.158 145.141 162.022 144.963C161.894 144.782 161.735 144.634 161.547 144.519C161.358 144.404 161.154 144.33 160.935 144.299C160.714 144.259 160.491 144.266 160.268 144.32C160.044 144.374 159.842 144.469 159.664 144.605C159.491 144.731 159.347 144.889 159.232 145.077C159.125 145.264 159.051 145.468 159.012 145.689C158.98 145.908 158.991 146.129 159.045 146.353L161.015 154.507L157.741 155.296L155.772 147.142C155.718 146.919 155.622 146.717 155.486 146.539C155.358 146.358 155.2 146.21 155.011 146.095C154.822 145.98 154.619 145.906 154.399 145.874C154.178 145.835 153.956 145.842 153.732 145.896C153.508 145.95 153.307 146.045 153.128 146.181C152.956 146.307 152.812 146.465 152.697 146.653C152.589 146.84 152.516 147.043 152.476 147.265C152.445 147.484 152.456 147.705 152.51 147.929L154.479 156.083L151.206 156.872L148.104 144.03L148.895 143.839L150.02 144.608C150.383 144.115 150.811 143.699 151.305 143.36C151.804 143.011 152.35 142.765 152.941 142.622C153.541 142.478 154.151 142.449 154.773 142.536C155.403 142.621 156 142.887 156.565 143.335C156.699 143.015 156.871 142.728 157.081 142.474C157.29 142.221 157.52 142 157.771 141.813C158.03 141.624 158.305 141.468 158.598 141.347C158.888 141.218 159.181 141.118 159.477 141.046C160.156 140.883 160.823 140.857 161.476 140.97C162.138 141.082 162.742 141.308 163.29 141.65C163.844 141.981 164.321 142.416 164.722 142.954C165.123 143.492 165.405 144.101 165.569 144.78L167.539 152.934ZM174.287 147.982C174.424 147.991 174.559 147.988 174.691 147.973C174.821 147.951 174.949 147.924 175.077 147.893C175.397 147.816 175.694 147.698 175.969 147.538C176.243 147.379 176.489 147.189 176.706 146.967C176.93 146.736 177.113 146.48 177.257 146.2C177.407 145.91 177.511 145.606 177.57 145.287L180.55 147.119C180.351 147.624 180.093 148.096 179.776 148.536C179.467 148.975 179.11 149.369 178.704 149.721C178.306 150.071 177.866 150.367 177.384 150.611C176.911 150.86 176.407 151.049 175.871 151.178C174.968 151.396 174.076 151.434 173.195 151.291C172.322 151.146 171.514 150.846 170.77 150.391C170.033 149.934 169.394 149.335 168.851 148.595C168.306 147.846 167.914 146.976 167.675 145.985C167.43 144.97 167.378 144.001 167.519 143.079C167.66 142.157 167.954 141.329 168.403 140.594C168.86 139.858 169.444 139.231 170.157 138.712C170.877 138.192 171.689 137.823 172.592 137.605C173.128 137.476 173.667 137.413 174.209 137.418C174.752 137.422 175.28 137.49 175.794 137.62C176.315 137.748 176.818 137.939 177.303 138.195C177.786 138.442 178.231 138.745 178.639 139.103L174.287 147.982ZM174.335 140.826C174.169 140.807 174.009 140.808 173.853 140.828C173.705 140.847 173.551 140.876 173.392 140.914C172.944 141.022 172.54 141.208 172.181 141.473C171.828 141.727 171.54 142.042 171.318 142.417C171.104 142.79 170.965 143.213 170.901 143.685C170.835 144.149 170.867 144.649 170.997 145.184C171.026 145.304 171.062 145.439 171.107 145.589C171.16 145.737 171.217 145.888 171.28 146.042C171.349 146.186 171.42 146.326 171.495 146.46C171.57 146.594 171.653 146.709 171.744 146.806L174.335 140.826Z" fill="white"/>
</svg>
