<svg width="278" height="192" viewBox="0 0 278 192" fill="none" xmlns="http://www.w3.org/2000/svg">
<rect y="9" width="266" height="173" rx="30" fill="#136AC6"/>
<rect x="13.9847" y="-1" width="266" height="173" rx="30" transform="rotate(4.63666 13.9847 -1)" stroke="#FFD95A" stroke-width="2" stroke-miterlimit="22.9256" stroke-linecap="round" stroke-linejoin="round" stroke-dasharray="4 4"/>
<mask id="mask0_0_1" style="mask-type:alpha" maskUnits="userSpaceOnUse" x="0" y="9" width="266" height="173">
<rect y="9" width="266" height="173" rx="30" fill="#136AC6"/>
</mask>
<g mask="url(#mask0_0_1)">
<path d="M384.106 194.273C376.728 184.288 325.639 176.539 251.857 176.539C178.076 176.539 117.224 184.288 108.393 194.273H107.275V196.769C107.275 207.946 172.002 216.999 251.857 216.999C331.713 216.999 385 207.946 385 196.769V194.273H384.068H384.106Z" fill="#C1BFBA"/>
<path d="M385 194.273C385 205.449 331.713 214.503 251.857 214.503C172.002 214.503 107.275 205.449 107.275 194.273C107.275 183.096 172.002 174.043 251.857 174.043C331.713 174.043 385 183.096 385 194.273Z" fill="#F9F5EF"/>
<g style="mix-blend-mode:multiply" opacity="0.6">
<path d="M377.249 194.273C377.249 201.314 338.644 204.406 279.283 204.406C219.923 204.406 171.815 198.706 171.815 191.665C171.815 184.624 210.83 178.998 270.154 178.998C329.477 178.998 377.212 187.231 377.212 194.273H377.249Z" fill="#D4D2CD"/>
</g>
<g style="mix-blend-mode:multiply" opacity="0.6">
<path d="M207.514 187.231C212.768 184.735 219.103 185.89 224.692 185.145C234.232 183.878 243.883 183.245 253.497 183.021C273.023 182.574 292.624 183.282 312.113 184.325C328.471 185.182 345.054 186.561 361.189 189.541C365.996 190.435 372.74 191.553 376.131 195.539C376.243 195.651 376.318 195.8 376.392 195.912C376.877 195.39 377.175 194.869 377.175 194.273C377.175 187.231 329.477 178.998 270.117 178.998C210.756 178.998 171.778 184.661 171.778 191.665C171.778 195.241 184.224 198.483 204.235 200.792C202.968 195.539 202.632 189.504 207.477 187.231H207.514Z" fill="#D4D2CD"/>
</g>
<path d="M149.045 193.905H94.6338C94.6338 193.905 84.405 194.836 85.0273 182V77.6854H149.045V193.905Z" fill="#DDDBD9"/>
<path d="M144.129 188.275H96.953C96.953 188.275 88.0843 189.131 88.6433 177.47V82.6545H144.129V188.275Z" fill="#F9F5EF"/>
<path d="M126.764 97.9294C126.764 104.002 121.808 108.957 115.734 108.957C109.66 108.957 104.704 104.002 104.704 97.9294C104.704 91.8567 109.66 86.9017 115.734 86.9017C121.808 86.9017 126.764 91.8567 126.764 97.9294Z" fill="#ABAAA8"/>
<path d="M124.789 97.9295C124.789 102.922 120.727 106.983 115.734 106.983C110.741 106.983 106.679 102.922 106.679 97.9295C106.679 92.9372 110.741 88.8763 115.734 88.8763C120.727 88.8763 124.789 92.9372 124.789 97.9295Z" fill="#DDDBD9"/>
<g style="mix-blend-mode:screen">
<path d="M115.734 94.3901C115.734 96.3274 114.169 97.9294 112.194 97.9294C110.219 97.9294 108.654 96.3647 108.654 94.3901C108.654 92.4155 110.219 90.8508 112.194 90.8508C114.169 90.8508 115.734 92.4155 115.734 94.3901Z" fill="#DDDBD9"/>
</g>
</g>
<path d="M150 63.7307L90.2983 63.7307C90.2983 63.7307 85.5759 63.7307 85 67.9915V78.2404L150 78.2404V63.6923V63.7307Z" fill="#DDDBD9"/>
<path d="M136.409 65.6501L92.2947 65.6501C92.2947 65.6501 88.8009 65.6501 88.3786 68.7977V76.398H136.409V65.6501Z" fill="#F9F5EF"/>
</svg>
