<svg width="206" height="185" viewBox="0 0 206 185" fill="none" xmlns="http://www.w3.org/2000/svg">
<path fill-rule="evenodd" clip-rule="evenodd" d="M158.205 15.1903C158.205 15.1903 143.366 65.595 199.883 97.2344C199.883 97.2344 163.66 97.2344 170.861 137.82C170.861 137.82 115.217 132.801 110.852 184.734C110.852 184.734 79.2114 151.785 41.897 163.132C41.897 163.132 43.2062 114.036 0 84.5787C0 84.5787 46.9159 76.9416 65.464 8.42599C65.6822 8.42599 104.961 52.0665 158.205 15.1903Z" fill="#136AC6"/>
<path fill-rule="evenodd" clip-rule="evenodd" d="M204.902 89.8156C177.407 74.105 154.059 42.4657 163.442 9.08068C163.442 8.86248 163.442 8.86249 163.442 8.64429C163.66 7.77148 162.351 7.55325 161.041 7.77146C160.605 7.77146 160.169 7.98969 159.732 8.20789C139.657 21.7364 116.526 26.5369 93.6136 16.936C85.1032 13.4447 76.5929 7.98966 70.4829 1.22538C69.3919 0.13437 66.5551 1.00718 66.1187 2.31639C59.3541 26.5369 47.5705 49.6664 27.2767 64.9405C20.5121 69.9592 10.2561 75.6324 3.27323 76.7234C2.40038 76.9416 -0.436393 78.0327 1.30931 79.1237C25.7492 96.1435 43.4245 126.255 42.7698 156.804C42.7698 158.113 44.5156 158.113 45.3884 157.895C69.1737 151.349 95.141 161.822 111.943 179.06C112.816 179.933 116.09 179.497 116.308 177.969C118.272 158.113 128.528 142.402 147.73 136.075C155.804 133.456 164.751 132.147 173.261 132.801C174.352 132.801 176.535 132.147 176.316 130.838C174.352 117.964 175.662 104.435 187.227 96.7981C191.373 94.1796 198.138 92.434 202.066 92.2158C203.157 92.2158 206.866 90.9066 204.902 89.8156ZM184.609 95.2707C172.389 102.69 169.988 116.873 171.734 129.965C162.569 129.747 152.968 131.492 144.457 134.547C126.564 141.093 115.871 155.713 112.816 173.824C95.3593 158.113 70.7012 149.385 47.5705 154.84C47.5705 124.946 30.9863 96.1434 7.41929 78.6872C39.9331 70.6138 60.6633 36.1378 69.8283 6.02586C77.0293 12.7901 86.1943 17.8088 95.3593 21.0818C116.962 28.9371 139.438 23.9185 158.423 12.5719C151.222 44.2113 172.389 73.8868 198.356 90.0338C193.337 90.9066 188.755 92.6522 184.609 95.2707Z" fill="black"/>
<path d="M58.725 105.311H52.9794V76.6027H73.079V82.3483H58.725V88.0939H67.3334V93.8395H58.725V105.311ZM92.2977 93.8395V88.0939C92.2977 87.3065 92.1442 86.5658 91.8373 85.8718C91.5437 85.1644 91.1366 84.5505 90.6161 84.03C90.0956 83.5095 89.4816 83.1024 88.7743 82.8088C88.0803 82.5018 87.3396 82.3483 86.5521 82.3483C85.7647 82.3483 85.0173 82.5018 84.3099 82.8088C83.6159 83.1024 83.0087 83.5095 82.4882 84.03C81.9677 84.5505 81.5539 85.1644 81.2469 85.8718C80.9533 86.5658 80.8065 87.3065 80.8065 88.0939V93.8395H92.2977ZM98.0433 105.311H92.2977V99.5651H80.8065V105.311H75.0809V88.0939C75.0809 86.5057 75.3812 85.0176 75.9818 83.6296C76.5824 82.2282 77.3965 81.007 78.4242 79.966C79.4652 78.925 80.6797 78.1042 82.0677 77.5036C83.4691 76.903 84.9639 76.6027 86.5521 76.6027C88.1403 76.6027 89.6285 76.903 91.0165 77.5036C92.4178 78.1042 93.639 78.925 94.6801 79.966C95.7211 81.007 96.5419 82.2282 97.1425 83.6296C97.743 85.0176 98.0433 86.5057 98.0433 88.0939V105.311ZM127.312 111.056H120.786L117.342 105.891C117.155 105.918 116.975 105.931 116.802 105.931C116.641 105.931 116.481 105.931 116.321 105.931C114.96 105.931 113.645 105.751 112.377 105.391C111.123 105.044 109.942 104.55 108.834 103.909C107.739 103.255 106.738 102.475 105.831 101.567C104.923 100.66 104.143 99.6585 103.489 98.5641C102.848 97.4564 102.348 96.2752 101.987 95.0207C101.64 93.7528 101.467 92.4382 101.467 91.0768C101.467 89.7155 101.64 88.4009 101.987 87.133C102.348 85.8651 102.848 84.6839 103.489 83.5895C104.143 82.4951 104.923 81.4942 105.831 80.5866C106.738 79.6791 107.739 78.905 108.834 78.2643C109.942 77.6237 111.123 77.1299 112.377 76.7829C113.645 76.4225 114.96 76.2424 116.321 76.2424C117.682 76.2424 118.997 76.4225 120.265 76.7829C121.533 77.1299 122.714 77.6237 123.808 78.2643C124.903 78.905 125.904 79.6791 126.811 80.5866C127.719 81.4942 128.493 82.4951 129.134 83.5895C129.774 84.6839 130.268 85.8651 130.615 87.133C130.975 88.4009 131.156 89.7155 131.156 91.0768C131.156 92.4916 130.955 93.8662 130.555 95.2009C130.168 96.5355 129.614 97.7834 128.893 98.9445C128.173 100.092 127.299 101.133 126.271 102.068C125.257 103.002 124.122 103.783 122.868 104.41L127.312 111.056ZM125.45 91.0768C125.45 89.8223 125.21 88.6411 124.729 87.5334C124.249 86.4123 123.595 85.4447 122.767 84.6306C121.953 83.8031 120.986 83.1491 119.865 82.6686C118.757 82.1882 117.576 81.9479 116.321 81.9479C115.053 81.9479 113.865 82.1882 112.758 82.6686C111.65 83.1491 110.682 83.8031 109.855 84.6306C109.027 85.4447 108.373 86.4123 107.893 87.5334C107.412 88.6411 107.172 89.8223 107.172 91.0768C107.172 92.3314 107.412 93.5126 107.893 94.6203C108.373 95.7147 109.027 96.6756 109.855 97.5031C110.682 98.3306 111.65 98.9846 112.758 99.465C113.865 99.9455 115.053 100.186 116.321 100.186C117.576 100.186 118.757 99.9455 119.865 99.465C120.986 98.9846 121.953 98.3306 122.767 97.5031C123.595 96.6756 124.249 95.7147 124.729 94.6203C125.21 93.5126 125.45 92.3314 125.45 91.0768ZM146.13 105.311H133.638V99.8654H146.13C146.504 99.8654 146.824 99.732 147.091 99.465C147.358 99.1981 147.492 98.8778 147.492 98.5041C147.492 98.117 147.358 97.8635 147.091 97.7433C146.824 97.6232 146.504 97.5632 146.13 97.5632H140.445C139.497 97.5632 138.61 97.383 137.782 97.0226C136.955 96.6623 136.234 96.1752 135.62 95.5612C135.006 94.9339 134.519 94.2066 134.159 93.3791C133.812 92.5516 133.638 91.6641 133.638 90.7165C133.638 89.7689 133.812 88.8814 134.159 88.0539C134.519 87.2264 135.006 86.5057 135.62 85.8918C136.234 85.2779 136.955 84.7974 137.782 84.4504C138.61 84.09 139.497 83.9099 140.445 83.9099H151.516V89.3552H140.445C140.071 89.3552 139.751 89.4886 139.484 89.7556C139.217 90.0225 139.083 90.3428 139.083 90.7165C139.083 91.1035 139.217 91.4372 139.484 91.7175C139.751 91.9844 140.071 92.1179 140.445 92.1179H146.13C147.064 92.1179 147.945 92.278 148.773 92.5983C149.6 92.9053 150.321 93.3391 150.935 93.8996C151.549 94.4601 152.036 95.1341 152.396 95.9216C152.757 96.709 152.937 97.5698 152.937 98.5041C152.937 99.4517 152.757 100.339 152.396 101.167C152.036 101.981 151.549 102.702 150.935 103.329C150.321 103.943 149.6 104.43 148.773 104.79C147.945 105.137 147.064 105.311 146.13 105.311Z" fill="white"/>
</svg>
