<svg width="574" height="580" viewBox="0 0 574 580" fill="none" xmlns="http://www.w3.org/2000/svg">
<path fill-rule="evenodd" clip-rule="evenodd" d="M1.29362 153.082C1.5922 117.229 2.55241 81.3953 3.0458 44.6961C3.17311 35.2266 9.88146 27.1007 19.1864 25.338C193.999 -7.77784 375.713 -13.125 547.514 39.3473C552.7 40.7858 557.015 42.1987 561.216 47.4647C567.083 55.351 568.445 68.2468 568.066 81.0911C571.732 222.61 573.618 365.361 572.893 508.036C572.627 517.027 572.362 526.018 570.393 533.673C563.654 555.329 544.349 559.902 528.64 560.724C405.505 569.949 282.521 574.036 158.742 575.529C118.515 575.484 64.4142 580.097 23.5645 579.371C14.7635 579.215 7.60991 572.978 6.83901 564.209C0.842324 496.001 0.0835155 247.827 1.29362 153.082Z" fill="#1F3D7F"/>
</svg>
