<svg width="278" height="192" viewBox="0 0 278 192" fill="none" xmlns="http://www.w3.org/2000/svg">
<rect x="3.05176e-05" y="9" width="266" height="173" rx="30" fill="#8CDCF5"/>
<mask id="mask0_0_1" style="mask-type:alpha" maskUnits="userSpaceOnUse" x="0" y="9" width="266" height="173">
<rect y="9" width="266" height="173" rx="30" fill="#136AC6"/>
</mask>
<g mask="url(#mask0_0_1)">
<path d="M384.106 194.273C376.728 184.288 325.639 176.539 251.857 176.539C178.076 176.539 117.224 184.288 108.393 194.273H107.275V196.769C107.275 207.946 172.002 216.999 251.857 216.999C331.713 216.999 385 207.946 385 196.769V194.273H384.068H384.106Z" fill="#C1BFBA"/>
<path d="M385 194.273C385 205.449 331.713 214.503 251.857 214.503C172.002 214.503 107.275 205.449 107.275 194.273C107.275 183.096 172.002 174.043 251.857 174.043C331.713 174.043 385 183.096 385 194.273Z" fill="#F9F5EF"/>
<g style="mix-blend-mode:multiply" opacity="0.6">
<path d="M377.249 194.273C377.249 201.314 338.644 204.406 279.283 204.406C219.923 204.406 171.815 198.706 171.815 191.665C171.815 184.624 210.83 178.998 270.154 178.998C329.477 178.998 377.212 187.231 377.212 194.273H377.249Z" fill="#D4D2CD"/>
</g>
<g style="mix-blend-mode:multiply" opacity="0.6">
<path d="M207.514 187.231C212.768 184.735 219.103 185.89 224.692 185.145C234.232 183.878 243.883 183.245 253.497 183.021C273.023 182.574 292.624 183.282 312.113 184.325C328.471 185.182 345.054 186.561 361.189 189.541C365.996 190.435 372.74 191.553 376.131 195.539C376.243 195.651 376.318 195.8 376.392 195.912C376.877 195.39 377.175 194.869 377.175 194.273C377.175 187.231 329.477 178.998 270.117 178.998C210.756 178.998 171.778 184.661 171.778 191.665C171.778 195.241 184.224 198.483 204.235 200.792C202.968 195.539 202.632 189.504 207.477 187.231H207.514Z" fill="#D4D2CD"/>
</g>
<path d="M149.045 193.905H94.6338C94.6338 193.905 84.405 194.836 85.0273 182V77.6854H149.045V193.905Z" fill="#DDDBD9"/>
<path d="M144.129 188.275H96.953C96.953 188.275 88.0843 189.131 88.6433 177.47V82.6545H144.129V188.275Z" fill="#F9F5EF"/>
<path d="M126.764 97.9294C126.764 104.002 121.808 108.957 115.734 108.957C109.66 108.957 104.704 104.002 104.704 97.9294C104.704 91.8567 109.66 86.9017 115.734 86.9017C121.808 86.9017 126.764 91.8567 126.764 97.9294Z" fill="#ABAAA8"/>
<path d="M124.789 97.9295C124.789 102.922 120.727 106.983 115.734 106.983C110.741 106.983 106.679 102.922 106.679 97.9295C106.679 92.9372 110.741 88.8763 115.734 88.8763C120.727 88.8763 124.789 92.9372 124.789 97.9295Z" fill="#DDDBD9"/>
<g style="mix-blend-mode:screen">
<path d="M115.734 94.3901C115.734 96.3274 114.169 97.9294 112.194 97.9294C110.219 97.9294 108.654 96.3647 108.654 94.3901C108.654 92.4155 110.219 90.8508 112.194 90.8508C114.169 90.8508 115.734 92.4155 115.734 94.3901Z" fill="#DDDBD9"/>
</g>
</g>
<rect x="13.9847" y="-1" width="266" height="173" rx="30" transform="rotate(4.63666 13.9847 -1)" stroke="black" stroke-width="2" stroke-miterlimit="22.9256" stroke-linecap="round" stroke-linejoin="round" stroke-dasharray="4 4"/>
<path d="M65.0461 1.7232L65.0461 73.3574C65.0461 73.3574 65.0461 79.0236 70.1636 79.7146L82.4732 79.7146L82.4732 1.7232L65 1.7232L65.0461 1.7232Z" fill="#DDDBD9"/>
<path d="M67.3514 18.031L67.3514 70.9619C67.3514 70.9619 67.3514 75.154 71.1318 75.6608L80.2603 75.6608L80.2603 18.031L67.3514 18.031Z" fill="#F9F5EF"/>
<path d="M122.111 74.0941C122.807 72.9766 122.635 71.6547 121.678 70.8104C121.199 70.3851 120.693 70.1948 120.035 70.1867C119.701 70.1848 119.429 70.2345 119.11 70.3582C118.983 70.408 118.856 70.4579 118.831 70.4666C118.789 70.4797 117.747 69.4731 109.654 61.5951L100.524 52.7082L100.302 52.3969C99.0785 50.6845 98.7357 48.5393 99.3539 46.461C99.6791 45.3672 100.23 44.4024 101.028 43.5203C102.236 42.1864 103.87 41.4357 105.687 41.3803C107.114 41.3384 108.452 41.7272 109.662 42.5367C110.079 42.8141 110.223 42.9463 110.169 43.0015C110.146 43.0248 109.945 43.1846 109.719 43.3615C109.188 43.775 108.806 44.0901 108.771 44.143C108.751 44.1768 108.818 44.1926 109.055 44.2084C109.227 44.2187 110.35 44.2981 111.554 44.3828C112.758 44.4675 113.772 44.5358 113.805 44.5353C113.858 44.5367 113.671 44.3465 112.393 43.1188C110.768 41.5541 110.783 41.5644 110.035 41.1217C107.322 39.5107 103.951 39.6034 101.387 41.3595C100.454 41.9983 99.747 42.7368 99.0855 43.7596C97.8119 45.7292 97.365 48.0818 97.8488 50.2733C98.0941 51.3889 98.5258 52.326 99.271 53.3575C99.4375 53.5858 99.9834 54.1255 108.618 62.539C115.874 69.6152 117.788 71.4903 117.782 71.526C117.78 71.5491 117.748 71.6375 117.713 71.7155C117.416 72.3689 117.463 73.2252 117.837 73.9243C117.994 74.2177 118.414 74.6479 118.723 74.8324C119.162 75.0948 119.627 75.2123 120.149 75.1907C120.641 75.1696 121.063 75.0215 121.524 74.7053C121.817 74.5066 121.924 74.3962 122.111 74.0941ZM120.825 73.9749C120.166 74.4006 119.218 74.2015 118.779 73.5473C118.332 72.8764 118.469 71.98 119.098 71.496C119.92 70.865 121.096 71.2078 121.442 72.1775C121.638 72.7364 121.518 73.3058 121.113 73.7218C121.018 73.8236 120.887 73.9364 120.825 73.9749Z" fill="black"/>
</svg>
