<svg width="205" height="169" viewBox="0 0 205 169" fill="none" xmlns="http://www.w3.org/2000/svg">
<path fill-rule="evenodd" clip-rule="evenodd" d="M189.62 68.1174C191.898 76.1117 192.215 86.614 189.623 94.4693C187.266 102.258 178.552 115.059 172.501 120.594C160.568 131.362 148.427 136.701 133.005 140.582C117.348 144.529 101.241 139.45 88.1798 130.202C81.4313 125.26 75.9941 118.673 69.1444 114.267C54.1692 104.548 32.6005 107.382 20.2625 120.298C16.3442 103.874 21.1611 85.9799 30.6781 72.0867C40.1281 57.9584 53.9089 47.4274 68.528 38.9456C86.0036 28.8882 105.829 21.721 125.951 21.8411C146.14 22.1962 166.894 30.7791 178.538 47.5469C183.27 54.3346 187.341 60.1231 189.62 68.1174Z" fill="#4995DB"/>
<path fill-rule="evenodd" clip-rule="evenodd" d="M102.004 143.038C98.6786 142.968 95.4884 141.589 92.8698 139.538C90.2512 137.488 87.8008 135.135 85.8209 132.649C85.4144 136.577 87.561 140.541 90.9523 142.626C94.1753 145.012 98.4077 145.587 102.372 145.221C103.85 145.054 105.026 144.719 106.304 143.848C103.818 144.047 104.322 143.141 102.004 143.038Z" fill="#4995DB"/>
<path fill-rule="evenodd" clip-rule="evenodd" d="M145.983 18.9404C143.7 18.0655 141.315 17.7277 138.695 17.4568C131.003 16.3423 123.311 15.2277 115.516 16.4299C119.918 14.9226 124.454 13.8856 129.124 13.3188C132.316 12.9185 135.272 12.5853 138.497 13.1924C141.956 13.7326 145.147 15.1119 148.404 16.7264C154.852 19.7202 161.332 23.7214 164.215 30.2714C160.69 27.7165 157.232 25.3967 153.538 23.1439C151.054 21.5637 148.569 19.9835 145.983 18.9404Z" fill="#4995DB"/>
</svg>
