<svg width="195" height="140" viewBox="0 0 195 140" fill="none" xmlns="http://www.w3.org/2000/svg">
<path fill-rule="evenodd" clip-rule="evenodd" d="M0.581858 43.6692C0.0781722 27.5593 11.9415 13.5139 27.9479 11.6224C78.9793 5.59187 131.443 4.96474 181.83 14.3001C183.576 14.5909 185.03 14.8817 186.485 16.0448C188.521 17.7895 189.103 20.6974 189.103 23.6052C191.722 55.5913 193.758 87.8682 194.922 120.145C194.922 122.181 194.922 124.216 194.34 125.961C192.303 130.904 185.903 132.067 180.666 132.358C139.645 135.266 98.6246 137.011 57.3128 138.174C26.9572 138.757 4.30593 120.429 2.59783 90.1159C1.58837 72.2015 0.835783 53.948 0.581858 43.6692Z" fill="#4995DB"/>
<path fill-rule="evenodd" clip-rule="evenodd" d="M187.358 103.28C188.23 108.514 187.939 113.748 187.067 118.982C186.776 120.145 186.485 121.308 185.903 122.471C185.03 123.925 183.576 124.798 182.121 125.379C178.048 127.124 173.393 126.542 169.029 126.252C172.811 125.088 176.302 123.053 179.503 120.727C184.448 116.365 186.776 109.677 187.358 103.28Z" fill="white"/>
<path fill-rule="evenodd" clip-rule="evenodd" d="M130.045 4.41338C149.537 1.50556 170.193 4.70413 187.649 14.0092C181.248 9.35666 174.848 4.12255 167.284 2.08707C161.465 0.342371 155.647 0.0516415 149.537 0.0516415C142.555 -0.239141 135.864 0.633207 130.045 4.41338Z" fill="#4995DB"/>
<path d="M61.6227 43.4847H58.1279V26.0227H61.6227V43.4847ZM88.0959 43.4847H84.7837V35.2043C84.7837 34.977 84.739 34.7618 84.6497 34.5589C84.5685 34.3559 84.4508 34.1773 84.2966 34.0231C84.1423 33.8689 83.9637 33.7511 83.7608 33.67C83.5578 33.5807 83.3427 33.536 83.1154 33.536C82.8881 33.536 82.673 33.5807 82.47 33.67C82.2752 33.7511 82.1006 33.8689 81.9464 34.0231C81.8003 34.1773 81.6826 34.3559 81.5933 34.5589C81.5121 34.7618 81.4715 34.977 81.4715 35.2043V43.4847H78.1471V35.2043C78.1471 34.977 78.1025 34.7618 78.0132 34.5589C77.932 34.3559 77.8143 34.1773 77.66 34.0231C77.5058 33.8689 77.3272 33.7511 77.1242 33.67C76.9213 33.5807 76.7062 33.536 76.4789 33.536C76.2515 33.536 76.0364 33.5807 75.8335 33.67C75.6386 33.7511 75.4641 33.8689 75.3098 34.0231C75.1637 34.1773 75.046 34.3559 74.9567 34.5589C74.8755 34.7618 74.8349 34.977 74.8349 35.2043V43.4847H71.5106V30.443H72.3143L73.2154 31.4415C73.6781 31.0519 74.1855 30.7515 74.7375 30.5404C75.2977 30.3212 75.8781 30.2116 76.4789 30.2116C77.0877 30.2116 77.6803 30.3253 78.2567 30.5526C78.8412 30.7799 79.3527 31.1736 79.791 31.7338C79.994 31.4578 80.2254 31.2224 80.4851 31.0275C80.7449 30.8327 81.0169 30.6744 81.301 30.5526C81.5933 30.4308 81.8936 30.3456 82.2021 30.2969C82.5106 30.2401 82.815 30.2116 83.1154 30.2116C83.8054 30.2116 84.4508 30.3415 85.0516 30.6013C85.6604 30.8611 86.1881 31.2183 86.6346 31.6729C87.0892 32.1194 87.4464 32.6471 87.7062 33.2559C87.966 33.8648 88.0959 34.5142 88.0959 35.2043V43.4847ZM103.159 43.4847H102.355L101.065 41.6947C100.748 41.9788 100.411 42.2467 100.054 42.4984C99.7047 42.7419 99.3354 42.9571 98.9457 43.1438C98.556 43.3224 98.1542 43.4644 97.7402 43.57C97.3343 43.6755 96.9202 43.7283 96.4981 43.7283C95.5807 43.7283 94.7162 43.574 93.9044 43.2656C93.1007 42.9571 92.3944 42.5106 91.7855 41.9261C91.1848 41.3334 90.7099 40.6109 90.3608 39.7585C90.0117 38.9061 89.8372 37.936 89.8372 36.8482C89.8372 35.8334 90.0117 34.9039 90.3608 34.0596C90.7099 33.2072 91.1848 32.4766 91.7855 31.8677C92.3944 31.2589 93.1007 30.788 93.9044 30.4552C94.7162 30.1142 95.5807 29.9438 96.4981 29.9438C96.9202 29.9438 97.3383 29.9965 97.7523 30.1021C98.1664 30.2076 98.5682 30.3537 98.9579 30.5404C99.3475 30.7271 99.7169 30.9463 100.066 31.198C100.423 31.4497 100.756 31.7216 101.065 32.0139L102.355 30.4674H103.159V43.4847ZM99.8103 36.8482C99.8103 36.3936 99.721 35.9552 99.5424 35.5331C99.3719 35.1028 99.1365 34.7253 98.8361 34.4006C98.5357 34.0677 98.1826 33.8039 97.7767 33.6091C97.3789 33.4061 96.9527 33.3046 96.4981 33.3046C96.0435 33.3046 95.6132 33.3818 95.2073 33.536C94.8095 33.6903 94.4604 33.9176 94.1601 34.2179C93.8678 34.5183 93.6365 34.8917 93.466 35.3382C93.2955 35.7766 93.2103 36.2799 93.2103 36.8482C93.2103 37.4165 93.2955 37.9238 93.466 38.3703C93.6365 38.8087 93.8678 39.1781 94.1601 39.4785C94.4604 39.7788 94.8095 40.0061 95.2073 40.1604C95.6132 40.3146 96.0435 40.3917 96.4981 40.3917C96.9527 40.3917 97.3789 40.2943 97.7767 40.0995C98.1826 39.8965 98.5357 39.6327 98.8361 39.308C99.1365 38.9751 99.3719 38.5976 99.5424 38.1755C99.721 37.7452 99.8103 37.3028 99.8103 36.8482ZM109.053 43.4847H105.704V25.2555H109.053V36.7508L114.009 30.4674H117.832L113.51 35.8984L117.832 43.4847H114.009L111.366 38.7478L109.053 41.8165V43.4847ZM123.921 40.2943C124.051 40.3349 124.181 40.3633 124.311 40.3796C124.441 40.3877 124.57 40.3917 124.7 40.3917C125.025 40.3917 125.338 40.3471 125.638 40.2578C125.938 40.1685 126.218 40.0427 126.478 39.8803C126.746 39.7098 126.982 39.5069 127.185 39.2714C127.396 39.0279 127.566 38.76 127.696 38.4678L130.131 40.9154C129.823 41.3537 129.466 41.7475 129.06 42.0965C128.662 42.4456 128.228 42.7419 127.757 42.9855C127.294 43.229 126.803 43.4117 126.283 43.5334C125.772 43.6633 125.244 43.7283 124.7 43.7283C123.783 43.7283 122.918 43.5578 122.107 43.2168C121.303 42.8759 120.597 42.401 119.988 41.7921C119.387 41.1833 118.912 40.4607 118.563 39.6246C118.214 38.7803 118.039 37.8548 118.039 36.8482C118.039 35.8172 118.214 34.8755 118.563 34.0231C118.912 33.1707 119.387 32.4441 119.988 31.8434C120.597 31.2426 121.303 30.7759 122.107 30.443C122.918 30.1102 123.783 29.9438 124.7 29.9438C125.244 29.9438 125.776 30.0087 126.296 30.1386C126.815 30.2685 127.306 30.4552 127.769 30.6987C128.24 30.9423 128.678 31.2426 129.084 31.5998C129.49 31.9489 129.847 32.3427 130.156 32.781L123.921 40.2943ZM125.626 33.4386C125.472 33.3818 125.317 33.3452 125.163 33.329C125.017 33.3128 124.863 33.3046 124.7 33.3046C124.246 33.3046 123.815 33.3899 123.41 33.5604C123.012 33.7227 122.663 33.9582 122.362 34.2666C122.07 34.5751 121.839 34.9486 121.668 35.3869C121.498 35.8172 121.413 36.3043 121.413 36.8482C121.413 36.97 121.417 37.108 121.425 37.2622C121.441 37.4165 121.461 37.5748 121.486 37.7371C121.518 37.8914 121.555 38.0416 121.595 38.1877C121.636 38.3338 121.689 38.4637 121.753 38.5774L125.626 33.4386Z" fill="white"/>
<path d="M39.0168 68.2013H35.6924V58.4718H34.0729V55.1596H35.6924V54.5385C35.6924 53.7348 35.8426 52.9799 36.143 52.2736C36.4515 51.5673 36.8696 50.9544 37.3972 50.4348C37.933 49.9072 38.5541 49.4931 39.2603 49.1928C39.9666 48.8843 40.7216 48.73 41.5253 48.73H44.0216V52.0422H41.5253C41.1681 52.0422 40.8353 52.1072 40.5268 52.2371C40.2264 52.3588 39.9626 52.5334 39.7352 52.7607C39.5161 52.9799 39.3415 53.2437 39.2116 53.5522C39.0817 53.8526 39.0168 54.1813 39.0168 54.5385V55.1596H43.0961V58.4718H39.0168V68.2013ZM54.1652 66.6792C53.8973 66.9227 53.6091 67.1541 53.3006 67.3732C53.0002 67.5843 52.6836 67.771 52.3508 67.9334C52.0179 68.0876 51.6729 68.2094 51.3157 68.2987C50.9666 68.3961 50.6094 68.4448 50.2441 68.4448C49.4404 68.4448 48.6855 68.3028 47.9792 68.0186C47.2729 67.7345 46.6519 67.3327 46.1161 66.8131C45.5884 66.2854 45.1703 65.6482 44.8618 64.9013C44.5615 64.1463 44.4113 63.302 44.4113 62.3684V55.1596H47.7235V62.3684C47.7235 62.8068 47.7884 63.2005 47.9183 63.5496C48.0563 63.8906 48.239 64.1788 48.4663 64.4142C48.6936 64.6496 48.9574 64.8282 49.2578 64.95C49.5663 65.0718 49.895 65.1327 50.2441 65.1327C50.5851 65.1327 50.9058 65.0555 51.2061 64.9013C51.5146 64.7389 51.7825 64.5279 52.0098 64.2681C52.2371 64.0083 52.4157 63.716 52.5456 63.3913C52.6755 63.0585 52.7404 62.7175 52.7404 62.3684V55.1596H56.0648V68.2013H55.2611L54.1652 66.6792ZM61.9342 68.2013H58.6098V55.1596H59.4135L60.5095 56.426C61.0453 55.9389 61.6501 55.5655 62.3239 55.3057C63.0058 55.0378 63.7161 54.9038 64.4549 54.9038C65.2504 54.9038 66.0014 55.0581 66.7076 55.3666C67.4139 55.6669 68.0309 56.085 68.5586 56.6208C69.0862 57.1485 69.5003 57.7695 69.8006 58.4839C70.1091 59.1902 70.2634 59.9452 70.2634 60.7489V68.2013H66.939V60.7489C66.939 60.4079 66.8741 60.0873 66.7442 59.7869C66.6143 59.4784 66.4357 59.2105 66.2084 58.9832C65.9811 58.7559 65.7172 58.5773 65.4169 58.4474C65.1165 58.3175 64.7958 58.2526 64.4549 58.2526C64.1058 58.2526 63.777 58.3175 63.4685 58.4474C63.16 58.5773 62.8921 58.7559 62.6648 58.9832C62.4375 59.2105 62.2589 59.4784 62.129 59.7869C61.9991 60.0873 61.9342 60.4079 61.9342 60.7489V68.2013ZM82.9519 68.2013H79.6276V55.1596H80.4313L81.5272 56.426C82.063 55.9389 82.6678 55.5655 83.3416 55.3057C84.0235 55.0378 84.7339 54.9038 85.4726 54.9038C86.2682 54.9038 87.0191 55.0581 87.7254 55.3666C88.4317 55.6669 89.0486 56.085 89.5763 56.6208C90.104 57.1485 90.518 57.7695 90.8184 58.4839C91.1269 59.1902 91.2811 59.9452 91.2811 60.7489V68.2013H87.9568V60.7489C87.9568 60.4079 87.8918 60.0873 87.7619 59.7869C87.632 59.4784 87.4534 59.2105 87.2261 58.9832C86.9988 58.7559 86.735 58.5773 86.4346 58.4474C86.1342 58.3175 85.8136 58.2526 85.4726 58.2526C85.1235 58.2526 84.7948 58.3175 84.4863 58.4474C84.1778 58.5773 83.9099 58.7559 83.6826 58.9832C83.4553 59.2105 83.2767 59.4784 83.1468 59.7869C83.0169 60.0873 82.9519 60.4079 82.9519 60.7489V68.2013ZM106.259 61.5647C106.259 62.5389 106.084 63.4481 105.735 64.2924C105.386 65.1286 104.911 65.8552 104.311 66.4721C103.71 67.081 103.004 67.564 102.192 67.9212C101.388 68.2703 100.524 68.4448 99.5981 68.4448C98.6808 68.4448 97.8162 68.2703 97.0044 67.9212C96.2007 67.564 95.4944 67.081 94.8856 66.4721C94.2848 65.8552 93.8099 65.1286 93.4608 64.2924C93.1118 63.4481 92.9372 62.5389 92.9372 61.5647C92.9372 60.5743 93.1118 59.657 93.4608 58.8127C93.8099 57.9684 94.2848 57.2419 94.8856 56.633C95.4944 56.016 96.2007 55.533 97.0044 55.1839C97.8162 54.8348 98.6808 54.6603 99.5981 54.6603C100.524 54.6603 101.388 54.8267 102.192 55.1596C103.004 55.4843 103.71 55.9511 104.311 56.5599C104.911 57.1607 105.386 57.8872 105.735 58.7396C106.084 59.5839 106.259 60.5256 106.259 61.5647ZM102.91 61.5647C102.91 61.029 102.821 60.5459 102.642 60.1157C102.472 59.6773 102.236 59.3039 101.936 58.9954C101.636 58.6788 101.283 58.4393 100.877 58.2769C100.479 58.1064 100.053 58.0212 99.5981 58.0212C99.1435 58.0212 98.7132 58.1064 98.3073 58.2769C97.9095 58.4393 97.5605 58.6788 97.2601 58.9954C96.9678 59.3039 96.7365 59.6773 96.566 60.1157C96.3955 60.5459 96.3103 61.029 96.3103 61.5647C96.3103 62.0681 96.3955 62.5349 96.566 62.9651C96.7365 63.3954 96.9678 63.7688 97.2601 64.0854C97.5605 64.402 97.9095 64.6537 98.3073 64.8404C98.7132 65.019 99.1435 65.1083 99.5981 65.1083C100.053 65.1083 100.479 65.0231 100.877 64.8526C101.283 64.6821 101.636 64.4426 101.936 64.1341C102.236 63.8256 102.472 63.4522 102.642 63.0138C102.821 62.5755 102.91 62.0924 102.91 61.5647ZM112.019 51.616C112.019 51.9245 111.958 52.2127 111.836 52.4806C111.722 52.7485 111.564 52.9839 111.361 53.1869C111.158 53.3817 110.919 53.54 110.643 53.6618C110.375 53.7754 110.087 53.8323 109.778 53.8323C109.47 53.8323 109.177 53.7754 108.901 53.6618C108.634 53.54 108.398 53.3817 108.195 53.1869C108 52.9839 107.842 52.7485 107.72 52.4806C107.607 52.2127 107.55 51.9245 107.55 51.616C107.55 51.3156 107.607 51.0315 107.72 50.7636C107.842 50.4876 108 50.2522 108.195 50.0573C108.398 49.8544 108.634 49.6961 108.901 49.5824C109.177 49.4607 109.47 49.3998 109.778 49.3998C110.087 49.3998 110.375 49.4607 110.643 49.5824C110.919 49.6961 111.158 49.8544 111.361 50.0573C111.564 50.2522 111.722 50.4876 111.836 50.7636C111.958 51.0315 112.019 51.3156 112.019 51.616ZM111.446 68.2013H108.098V55.1596H111.446V68.2013ZM121.152 68.2013H113.553V64.8891H121.152C121.379 64.8891 121.574 64.8079 121.736 64.6456C121.899 64.4832 121.98 64.2884 121.98 64.0611C121.98 63.8256 121.899 63.6714 121.736 63.5983C121.574 63.5253 121.379 63.4887 121.152 63.4887H117.693C117.117 63.4887 116.577 63.3791 116.074 63.16C115.57 62.9408 115.132 62.6445 114.759 62.271C114.385 61.8895 114.089 61.447 113.87 60.9437C113.659 60.4404 113.553 59.9005 113.553 59.3242C113.553 58.7478 113.659 58.2079 113.87 57.7046C114.089 57.2013 114.385 56.7629 114.759 56.3895C115.132 56.016 115.57 55.7238 116.074 55.5127C116.577 55.2935 117.117 55.1839 117.693 55.1839H124.427V58.4961H117.693C117.466 58.4961 117.271 58.5773 117.109 58.7396C116.946 58.902 116.865 59.0968 116.865 59.3242C116.865 59.5596 116.946 59.7625 117.109 59.933C117.271 60.0954 117.466 60.1766 117.693 60.1766H121.152C121.72 60.1766 122.256 60.274 122.759 60.4688C123.262 60.6555 123.701 60.9194 124.074 61.2603C124.448 61.6013 124.744 62.0112 124.963 62.4902C125.182 62.9692 125.292 63.4928 125.292 64.0611C125.292 64.6374 125.182 65.1773 124.963 65.6806C124.744 66.1758 124.448 66.6142 124.074 66.9958C123.701 67.3692 123.262 67.6655 122.759 67.8847C122.256 68.0958 121.72 68.2013 121.152 68.2013ZM132.257 65.0109C132.387 65.0515 132.517 65.0799 132.647 65.0961C132.777 65.1042 132.907 65.1083 133.037 65.1083C133.361 65.1083 133.674 65.0636 133.974 64.9743C134.275 64.8851 134.555 64.7592 134.814 64.5969C135.082 64.4264 135.318 64.2234 135.521 63.988C135.732 63.7445 135.902 63.4766 136.032 63.1843L138.468 65.6319C138.159 66.0703 137.802 66.464 137.396 66.8131C136.998 67.1622 136.564 67.4585 136.093 67.702C135.63 67.9456 135.139 68.1282 134.62 68.25C134.108 68.3799 133.58 68.4448 133.037 68.4448C132.119 68.4448 131.255 68.2744 130.443 67.9334C129.639 67.5924 128.933 67.1175 128.324 66.5087C127.723 65.8998 127.248 65.1773 126.899 64.3411C126.55 63.4969 126.376 62.5714 126.376 61.5647C126.376 60.5337 126.55 59.592 126.899 58.7396C127.248 57.8872 127.723 57.1607 128.324 56.5599C128.933 55.9592 129.639 55.4924 130.443 55.1596C131.255 54.8267 132.119 54.6603 133.037 54.6603C133.58 54.6603 134.112 54.7252 134.632 54.8551C135.151 54.985 135.642 55.1717 136.105 55.4153C136.576 55.6588 137.014 55.9592 137.42 56.3164C137.826 56.6655 138.183 57.0592 138.492 57.4976L132.257 65.0109ZM133.962 58.1551C133.808 58.0983 133.654 58.0618 133.499 58.0456C133.353 58.0293 133.199 58.0212 133.037 58.0212C132.582 58.0212 132.152 58.1064 131.746 58.2769C131.348 58.4393 130.999 58.6747 130.699 58.9832C130.406 59.2917 130.175 59.6651 130.004 60.1035C129.834 60.5337 129.749 61.0208 129.749 61.5647C129.749 61.6865 129.753 61.8245 129.761 61.9788C129.777 62.133 129.797 62.2913 129.822 62.4537C129.854 62.6079 129.891 62.7581 129.931 62.9042C129.972 63.0504 130.025 63.1802 130.09 63.2939L133.962 58.1551ZM147.333 68.2013H139.734V64.8891H147.333C147.56 64.8891 147.755 64.8079 147.917 64.6456C148.079 64.4832 148.161 64.2884 148.161 64.0611C148.161 63.8256 148.079 63.6714 147.917 63.5983C147.755 63.5253 147.56 63.4887 147.333 63.4887H143.874C143.298 63.4887 142.758 63.3791 142.255 63.16C141.751 62.9408 141.313 62.6445 140.94 62.271C140.566 61.8895 140.27 61.447 140.051 60.9437C139.84 60.4404 139.734 59.9005 139.734 59.3242C139.734 58.7478 139.84 58.2079 140.051 57.7046C140.27 57.2013 140.566 56.7629 140.94 56.3895C141.313 56.016 141.751 55.7238 142.255 55.5127C142.758 55.2935 143.298 55.1839 143.874 55.1839H150.608V58.4961H143.874C143.647 58.4961 143.452 58.5773 143.29 58.7396C143.127 58.902 143.046 59.0968 143.046 59.3242C143.046 59.5596 143.127 59.7625 143.29 59.933C143.452 60.0954 143.647 60.1766 143.874 60.1766H147.333C147.901 60.1766 148.437 60.274 148.94 60.4688C149.443 60.6555 149.882 60.9194 150.255 61.2603C150.628 61.6013 150.925 62.0112 151.144 62.4902C151.363 62.9692 151.473 63.4928 151.473 64.0611C151.473 64.6374 151.363 65.1773 151.144 65.6806C150.925 66.1758 150.628 66.6142 150.255 66.9958C149.882 67.3692 149.443 67.6655 148.94 67.8847C148.437 68.0958 147.901 68.2013 147.333 68.2013Z" fill="white"/>
<path d="M53.3801 77.6596H56.0469V80.3021H50.8838C50.7052 80.3021 50.5347 80.3386 50.3724 80.4117C50.2181 80.4766 50.0801 80.57 49.9583 80.6917C49.8366 80.8135 49.7391 80.9556 49.6661 81.1179C49.6011 81.2722 49.5687 81.4386 49.5687 81.6172C49.5687 81.8039 49.6011 81.9825 49.6661 82.153C49.7391 82.3154 49.8366 82.4574 49.9583 82.5792C50.0801 82.701 50.2181 82.7984 50.3724 82.8715C50.5347 82.9364 50.7052 82.9689 50.8838 82.9689H54.062V85.6113H50.8838C50.7052 85.6113 50.5347 85.6478 50.3724 85.7209C50.2181 85.7859 50.0801 85.8792 49.9583 86.001C49.8366 86.1228 49.7391 86.2648 49.6661 86.4272C49.6011 86.5814 49.5687 86.7478 49.5687 86.9264C49.5687 87.1132 49.6011 87.2918 49.6661 87.4622C49.7391 87.6246 49.8366 87.7667 49.9583 87.8884C50.0801 88.0102 50.2181 88.1076 50.3724 88.1807C50.5347 88.2456 50.7052 88.2781 50.8838 88.2781H56.0469V90.9206H53.3801V92.9176H51.1395V90.9206H50.8838C50.3318 90.9206 49.8163 90.8191 49.3373 90.6161C48.8583 90.4051 48.4402 90.1209 48.0831 89.7637C47.7259 89.3984 47.4417 88.9763 47.2307 88.4973C47.0277 88.0102 46.9262 87.4866 46.9262 86.9264C46.9262 86.4394 47.0115 85.9685 47.1819 85.5139C47.3524 85.0593 47.6081 84.6493 47.9491 84.284C47.6081 83.9187 47.3524 83.5087 47.1819 83.0541C47.0115 82.5995 46.9262 82.1205 46.9262 81.6172C46.9262 81.0733 47.0277 80.5619 47.2307 80.0829C47.4417 79.5958 47.7259 79.1737 48.0831 78.8165C48.4402 78.4593 48.8583 78.1792 49.3373 77.9762C49.8163 77.7652 50.3318 77.6596 50.8838 77.6596H51.1395V75.4312H53.3801V77.6596ZM77.2351 82.4696L74.7997 84.9172C74.6779 84.5763 74.5115 84.2718 74.3005 84.0039C74.0894 83.7279 73.8499 83.4965 73.582 83.3098C73.3222 83.1231 73.0381 82.981 72.7296 82.8836C72.4211 82.7862 72.1045 82.7375 71.7798 82.7375C71.3252 82.7375 70.8949 82.8309 70.489 83.0176C70.0912 83.2043 69.7421 83.4681 69.4418 83.8091C69.1495 84.1419 68.9182 84.5397 68.7477 85.0025C68.5772 85.4652 68.492 85.9766 68.492 86.5368C68.492 86.9914 68.5772 87.4176 68.7477 87.8154C68.9182 88.2132 69.1495 88.5622 69.4418 88.8626C69.7421 89.163 70.0912 89.3984 70.489 89.5689C70.8949 89.7394 71.3252 89.8246 71.7798 89.8246C72.1045 89.8246 72.4171 89.78 72.7174 89.6907C73.0178 89.6014 73.2979 89.4755 73.5576 89.3132C73.8255 89.1427 74.061 88.9397 74.2639 88.7043C74.475 88.4608 74.6455 88.1929 74.7754 87.9006L77.2108 90.3482C76.9023 90.7866 76.5451 91.1803 76.1392 91.5294C75.7414 91.8785 75.3071 92.1748 74.8362 92.4183C74.3735 92.6619 73.8824 92.8445 73.3628 92.9663C72.8514 93.0962 72.3237 93.1611 71.7798 93.1611C70.8624 93.1611 69.9979 92.9907 69.1861 92.6497C68.3824 92.3006 67.6761 91.8257 67.0672 91.225C66.4665 90.6242 65.9916 89.922 65.6425 89.1183C65.2934 88.3146 65.1189 87.4541 65.1189 86.5368C65.1189 85.5383 65.2934 84.6047 65.6425 83.736C65.9916 82.8674 66.4665 82.1124 67.0672 81.4711C67.6761 80.8216 68.3824 80.3102 69.1861 79.9368C69.9979 79.5633 70.8624 79.3766 71.7798 79.3766C72.3237 79.3766 72.8554 79.4456 73.375 79.5836C73.9027 79.7216 74.4019 79.9246 74.8728 80.1925C75.3517 80.4523 75.7901 80.7729 76.1879 81.1545C76.5938 81.536 76.9429 81.9744 77.2351 82.4696ZM82.1912 92.9176H78.8669V74.6884H82.1912V80.4482C82.589 80.1478 82.999 79.9368 83.4211 79.815C83.8433 79.6851 84.2735 79.6202 84.7119 79.6202C85.5156 79.6202 86.2706 79.7744 86.9769 80.0829C87.6831 80.3833 88.2961 80.8013 88.8156 81.3371C89.3433 81.8648 89.7573 82.4858 90.0577 83.2002C90.3662 83.9065 90.5204 84.6615 90.5204 85.4652V92.9176H87.1717V85.4652H87.1961C87.1961 85.1242 87.1311 84.8036 87.0012 84.5032C86.8713 84.1947 86.6927 83.9268 86.4654 83.6995C86.2381 83.4722 85.9743 83.2936 85.6739 83.1637C85.3735 83.0338 85.0529 82.9689 84.7119 82.9689C84.3628 82.9689 84.0341 83.0338 83.7256 83.1637C83.4171 83.2936 83.1492 83.4722 82.9219 83.6995C82.6946 83.9268 82.516 84.1947 82.3861 84.5032C82.2562 84.8036 82.1912 85.1242 82.1912 85.4652V92.9176ZM98.0824 89.7272C98.2123 89.7678 98.3422 89.7962 98.4721 89.8124C98.602 89.8205 98.7319 89.8246 98.8618 89.8246C99.1865 89.8246 99.499 89.78 99.7994 89.6907C100.1 89.6014 100.38 89.4755 100.64 89.3132C100.908 89.1427 101.143 88.9397 101.346 88.7043C101.557 88.4608 101.727 88.1929 101.857 87.9006L104.293 90.3482C103.984 90.7866 103.627 91.1803 103.221 91.5294C102.823 91.8785 102.389 92.1748 101.918 92.4183C101.455 92.6619 100.964 92.8445 100.445 92.9663C99.9334 93.0962 99.4057 93.1611 98.8618 93.1611C97.9444 93.1611 97.0798 92.9907 96.268 92.6497C95.4643 92.3087 94.7581 91.8338 94.1492 91.225C93.5485 90.6161 93.0736 89.8936 92.7245 89.0574C92.3754 88.2132 92.2009 87.2877 92.2009 86.2811C92.2009 85.2501 92.3754 84.3084 92.7245 83.456C93.0736 82.6036 93.5485 81.877 94.1492 81.2762C94.7581 80.6755 95.4643 80.2087 96.268 79.8759C97.0798 79.543 97.9444 79.3766 98.8618 79.3766C99.4057 79.3766 99.9374 79.4416 100.457 79.5714C100.977 79.7013 101.468 79.8881 101.93 80.1316C102.401 80.3751 102.84 80.6755 103.246 81.0327C103.651 81.3818 104.009 81.7755 104.317 82.2139L98.0824 89.7272ZM99.7872 82.8715C99.633 82.8146 99.4787 82.7781 99.3245 82.7619C99.1784 82.7456 99.0241 82.7375 98.8618 82.7375C98.4071 82.7375 97.9769 82.8227 97.571 82.9932C97.1732 83.1556 96.8241 83.391 96.5238 83.6995C96.2315 84.008 96.0001 84.3814 95.8297 84.8198C95.6592 85.2501 95.5739 85.7371 95.5739 86.2811C95.5739 86.4028 95.578 86.5408 95.5861 86.6951C95.6023 86.8493 95.6226 87.0076 95.647 87.17C95.6795 87.3242 95.716 87.4744 95.7566 87.6205C95.7972 87.7667 95.8499 87.8966 95.9149 88.0102L99.7872 82.8715ZM111.088 89.7272C111.218 89.7678 111.347 89.7962 111.477 89.8124C111.607 89.8205 111.737 89.8246 111.867 89.8246C112.192 89.8246 112.504 89.78 112.805 89.6907C113.105 89.6014 113.385 89.4755 113.645 89.3132C113.913 89.1427 114.148 88.9397 114.351 88.7043C114.562 88.4608 114.733 88.1929 114.863 87.9006L117.298 90.3482C116.989 90.7866 116.632 91.1803 116.226 91.5294C115.829 91.8785 115.394 92.1748 114.923 92.4183C114.461 92.6619 113.97 92.8445 113.45 92.9663C112.939 93.0962 112.411 93.1611 111.867 93.1611C110.95 93.1611 110.085 92.9907 109.273 92.6497C108.47 92.3087 107.763 91.8338 107.154 91.225C106.554 90.6161 106.079 89.8936 105.73 89.0574C105.381 88.2132 105.206 87.2877 105.206 86.2811C105.206 85.2501 105.381 84.3084 105.73 83.456C106.079 82.6036 106.554 81.877 107.154 81.2762C107.763 80.6755 108.47 80.2087 109.273 79.8759C110.085 79.543 110.95 79.3766 111.867 79.3766C112.411 79.3766 112.943 79.4416 113.462 79.5714C113.982 79.7013 114.473 79.8881 114.936 80.1316C115.406 80.3751 115.845 80.6755 116.251 81.0327C116.657 81.3818 117.014 81.7755 117.322 82.2139L111.088 89.7272ZM112.792 82.8715C112.638 82.8146 112.484 82.7781 112.33 82.7619C112.184 82.7456 112.029 82.7375 111.867 82.7375C111.412 82.7375 110.982 82.8227 110.576 82.9932C110.178 83.1556 109.829 83.391 109.529 83.6995C109.237 84.008 109.005 84.3814 108.835 84.8198C108.664 85.2501 108.579 85.7371 108.579 86.2811C108.579 86.4028 108.583 86.5408 108.591 86.6951C108.608 86.8493 108.628 87.0076 108.652 87.17C108.685 87.3242 108.721 87.4744 108.762 87.6205C108.802 87.7667 108.855 87.8966 108.92 88.0102L112.792 82.8715ZM122.327 92.9176H119.003V79.8759H119.806L120.902 81.4224C121.438 80.9353 122.047 80.5619 122.729 80.3021C123.411 80.0342 124.117 79.9002 124.848 79.9002H127.782V83.2124H124.848C124.499 83.2124 124.17 83.2774 123.861 83.4072C123.553 83.5371 123.285 83.7157 123.058 83.943C122.83 84.1704 122.652 84.4382 122.522 84.7467C122.392 85.0552 122.327 85.384 122.327 85.7331V92.9176ZM136.343 92.9176H128.744V89.6054H136.343C136.57 89.6054 136.765 89.5242 136.928 89.3619C137.09 89.1995 137.171 89.0047 137.171 88.7774C137.171 88.5419 137.09 88.3877 136.928 88.3146C136.765 88.2416 136.57 88.205 136.343 88.205H132.885C132.308 88.205 131.768 88.0955 131.265 87.8763C130.762 87.6571 130.323 87.3608 129.95 86.9873C129.577 86.6058 129.28 86.1633 129.061 85.66C128.85 85.1567 128.744 84.6168 128.744 84.0405C128.744 83.4641 128.85 82.9242 129.061 82.4209C129.28 81.9176 129.577 81.4792 129.95 81.1058C130.323 80.7323 130.762 80.4401 131.265 80.229C131.768 80.0098 132.308 79.9002 132.885 79.9002H139.619V83.2124H132.885C132.657 83.2124 132.463 83.2936 132.3 83.456C132.138 83.6183 132.057 83.8132 132.057 84.0405C132.057 84.2759 132.138 84.4788 132.3 84.6493C132.463 84.8117 132.657 84.8929 132.885 84.8929H136.343C136.911 84.8929 137.447 84.9903 137.95 85.1851C138.454 85.3718 138.892 85.6357 139.266 85.9766C139.639 86.3176 139.935 86.7276 140.154 87.2065C140.374 87.6855 140.483 88.2091 140.483 88.7774C140.483 89.3538 140.374 89.8936 140.154 90.3969C139.935 90.8921 139.639 91.3305 139.266 91.7121C138.892 92.0855 138.454 92.3818 137.95 92.601C137.447 92.8121 136.911 92.9176 136.343 92.9176Z" fill="white"/>
<path d="M59.171 122.602V119.254L61.0219 119.278C61.3466 119.278 61.6592 119.225 61.9595 119.12C62.2599 119.014 62.5359 118.868 62.7876 118.681C63.0474 118.495 63.2747 118.271 63.4695 118.012C63.6643 117.76 63.8226 117.484 63.9444 117.184C63.5791 117.338 63.2057 117.492 62.8241 117.646C62.4507 117.801 62.0732 117.878 61.6916 117.878C60.888 117.878 60.133 117.736 59.4267 117.451C58.7204 117.167 58.0994 116.766 57.5636 116.246C57.0359 115.718 56.6178 115.081 56.3093 114.334C56.009 113.579 55.8588 112.735 55.8588 111.801V104.592H59.171V111.801C59.171 112.264 59.2359 112.67 59.3658 113.019C59.5038 113.36 59.6865 113.648 59.9138 113.884C60.1411 114.111 60.4049 114.281 60.7053 114.395C61.0138 114.509 61.3426 114.566 61.6916 114.566C62.0326 114.566 62.3533 114.488 62.6536 114.334C62.9621 114.172 63.23 113.961 63.4573 113.701C63.6846 113.441 63.8632 113.149 63.9931 112.824C64.123 112.491 64.188 112.15 64.188 111.801V104.592H67.5367V115.99C67.5286 116.908 67.35 117.768 67.0009 118.572C66.6518 119.375 66.1728 120.078 65.564 120.678C64.9632 121.279 64.261 121.754 63.4573 122.103C62.6536 122.452 61.7931 122.627 60.8758 122.627L59.171 122.602ZM82.6851 110.998C82.6851 111.972 82.5105 112.881 82.1614 113.725C81.8124 114.561 81.3374 115.288 80.7367 115.905C80.136 116.514 79.4297 116.997 78.6179 117.354C77.8142 117.703 76.9496 117.878 76.0242 117.878C75.1068 117.878 74.2422 117.703 73.4304 117.354C72.6267 116.997 71.9205 116.514 71.3116 115.905C70.7109 115.288 70.2359 114.561 69.8869 113.725C69.5378 112.881 69.3632 111.972 69.3632 110.998C69.3632 110.007 69.5378 109.09 69.8869 108.246C70.2359 107.401 70.7109 106.675 71.3116 106.066C71.9205 105.449 72.6267 104.966 73.4304 104.617C74.2422 104.268 75.1068 104.093 76.0242 104.093C76.9496 104.093 77.8142 104.26 78.6179 104.592C79.4297 104.917 80.136 105.384 80.7367 105.993C81.3374 106.594 81.8124 107.32 82.1614 108.173C82.5105 109.017 82.6851 109.958 82.6851 110.998ZM79.3363 110.998C79.3363 110.462 79.247 109.979 79.0684 109.549C78.898 109.11 78.6625 108.737 78.3622 108.428C78.0618 108.112 77.7087 107.872 77.3028 107.71C76.905 107.539 76.4788 107.454 76.0242 107.454C75.5695 107.454 75.1393 107.539 74.7334 107.71C74.3356 107.872 73.9865 108.112 73.6861 108.428C73.3939 108.737 73.1625 109.11 72.992 109.549C72.8216 109.979 72.7363 110.462 72.7363 110.998C72.7363 111.501 72.8216 111.968 72.992 112.398C73.1625 112.828 73.3939 113.202 73.6861 113.518C73.9865 113.835 74.3356 114.087 74.7334 114.273C75.1393 114.452 75.5695 114.541 76.0242 114.541C76.4788 114.541 76.905 114.456 77.3028 114.285C77.7087 114.115 78.0618 113.875 78.3622 113.567C78.6625 113.258 78.898 112.885 79.0684 112.447C79.247 112.008 79.3363 111.525 79.3363 110.998ZM94.1072 116.112C93.8393 116.356 93.5511 116.587 93.2426 116.806C92.9423 117.017 92.6257 117.204 92.2928 117.366C91.96 117.521 91.615 117.642 91.2578 117.732C90.9087 117.829 90.5515 117.878 90.1862 117.878C89.3825 117.878 88.6275 117.736 87.9212 117.451C87.215 117.167 86.5939 116.766 86.0581 116.246C85.5304 115.718 85.1124 115.081 84.8039 114.334C84.5035 113.579 84.3533 112.735 84.3533 111.801V104.592H87.6655V111.801C87.6655 112.24 87.7305 112.633 87.8603 112.982C87.9983 113.323 88.181 113.612 88.4083 113.847C88.6356 114.082 88.8995 114.261 89.1998 114.383C89.5083 114.505 89.8371 114.566 90.1862 114.566C90.5271 114.566 90.8478 114.488 91.1482 114.334C91.4567 114.172 91.7246 113.961 91.9519 113.701C92.1792 113.441 92.3578 113.149 92.4877 112.824C92.6175 112.491 92.6825 112.15 92.6825 111.801V104.592H96.0069V117.634H95.2032L94.1072 116.112ZM118.145 110.998C118.145 111.972 117.97 112.881 117.621 113.725C117.272 114.561 116.797 115.288 116.197 115.905C115.596 116.514 114.89 116.997 114.078 117.354C113.274 117.703 112.409 117.878 111.484 117.878C110.567 117.878 109.702 117.703 108.89 117.354C108.087 116.997 107.38 116.514 106.771 115.905C106.171 115.288 105.696 114.561 105.347 113.725C104.998 112.881 104.823 111.972 104.823 110.998C104.823 110.007 104.998 109.09 105.347 108.246C105.696 107.401 106.171 106.675 106.771 106.066C107.38 105.449 108.087 104.966 108.89 104.617C109.702 104.268 110.567 104.093 111.484 104.093C112.409 104.093 113.274 104.26 114.078 104.592C114.89 104.917 115.596 105.384 116.197 105.993C116.797 106.594 117.272 107.32 117.621 108.173C117.97 109.017 118.145 109.958 118.145 110.998ZM114.796 110.998C114.796 110.462 114.707 109.979 114.528 109.549C114.358 109.11 114.122 108.737 113.822 108.428C113.522 108.112 113.169 107.872 112.763 107.71C112.365 107.539 111.939 107.454 111.484 107.454C111.029 107.454 110.599 107.539 110.193 107.71C109.795 107.872 109.446 108.112 109.146 108.428C108.854 108.737 108.622 109.11 108.452 109.549C108.281 109.979 108.196 110.462 108.196 110.998C108.196 111.501 108.281 111.968 108.452 112.398C108.622 112.828 108.854 113.202 109.146 113.518C109.446 113.835 109.795 114.087 110.193 114.273C110.599 114.452 111.029 114.541 111.484 114.541C111.939 114.541 112.365 114.456 112.763 114.285C113.169 114.115 113.522 113.875 113.822 113.567C114.122 113.258 114.358 112.885 114.528 112.447C114.707 112.008 114.796 111.525 114.796 110.998ZM123.308 117.634H119.984V104.592H120.787L121.883 105.859C122.419 105.372 123.024 104.998 123.698 104.739C124.38 104.471 125.09 104.337 125.829 104.337C126.624 104.337 127.375 104.491 128.081 104.799C128.788 105.1 129.405 105.518 129.932 106.054C130.46 106.581 130.874 107.202 131.174 107.917C131.483 108.623 131.637 109.378 131.637 110.182V117.634H128.313V110.182C128.313 109.841 128.248 109.52 128.118 109.22C127.988 108.911 127.81 108.643 127.582 108.416C127.355 108.189 127.091 108.01 126.791 107.88C126.49 107.75 126.17 107.685 125.829 107.685C125.48 107.685 125.151 107.75 124.842 107.88C124.534 108.01 124.266 108.189 124.039 108.416C123.811 108.643 123.633 108.911 123.503 109.22C123.373 109.52 123.308 109.841 123.308 110.182V117.634ZM137.531 113.323H134.815L134.073 100.172H138.286L137.531 113.323ZM138.262 116.392C138.262 116.684 138.205 116.96 138.091 117.22C137.986 117.472 137.839 117.691 137.653 117.878C137.466 118.064 137.247 118.211 136.995 118.316C136.743 118.43 136.476 118.487 136.191 118.487C135.899 118.487 135.627 118.43 135.376 118.316C135.124 118.211 134.901 118.064 134.706 117.878C134.519 117.691 134.369 117.472 134.255 117.22C134.15 116.96 134.097 116.684 134.097 116.392C134.097 116.108 134.15 115.84 134.255 115.588C134.369 115.337 134.519 115.118 134.706 114.931C134.901 114.744 135.124 114.598 135.376 114.492C135.627 114.379 135.899 114.322 136.191 114.322C136.476 114.322 136.743 114.379 136.995 114.492C137.247 114.598 137.466 114.744 137.653 114.931C137.839 115.118 137.986 115.337 138.091 115.588C138.205 115.84 138.262 116.108 138.262 116.392Z" fill="white"/>
</svg>
