<svg width="886" height="643" viewBox="0 0 886 643" fill="none" xmlns="http://www.w3.org/2000/svg">
<path fill-rule="evenodd" clip-rule="evenodd" d="M695.363 585.124C585.462 642.807 450.495 643.708 323.241 642.807C279.859 642.807 235.513 641.906 195.023 627.485C154.533 613.064 118.863 579.716 114.043 540.06C110.186 499.502 135.252 452.635 106.33 421.991C88.9774 403.965 60.0559 402.162 40.775 385.939C23.4221 371.518 18.6019 348.986 13.7817 328.257C-3.57115 246.239 -15.1397 147.097 52.3436 93.0199C79.3369 71.3889 114.043 60.5734 147.784 52.4618C237.441 29.9296 328.061 13.7064 420.61 3.79222C498.698 -4.31938 592.21 -0.714115 636.556 59.6723C653.909 83.1059 661.622 112.848 683.795 131.776C715.608 158.814 764.775 156.11 802.372 174.136C868.892 205.681 880.46 287.698 885.281 357.999C887.209 394.051 801.408 394.251 787.912 428.5C773.451 462.749 818 461.5 787.912 527.442L695.363 585.124Z" fill="#136AC6"/>
<path fill-rule="evenodd" clip-rule="evenodd" d="M55.053 137.52C57.4943 132.238 59.9355 126.957 64.2078 122.85C76.4143 110.527 96.555 111.701 113.644 114.048C97.7756 122.263 82.5175 132.239 70.9214 145.148C58.7149 158.057 50.7807 174.487 49.56 191.504C43.4568 173.9 47.7291 154.536 55.053 137.52Z" fill="white"/>
</svg>
