<svg width="278" height="192" viewBox="0 0 278 192" fill="none" xmlns="http://www.w3.org/2000/svg">
<rect y="9" width="266" height="173" rx="30" fill="#FFD95A"/>
<path fill-rule="evenodd" clip-rule="evenodd" d="M93.9092 73.0237C93.6035 73.4822 93.7564 73.9408 94.0621 74.2464C94.2149 74.3993 94.5206 74.705 94.2149 75.0107C94.062 75.1635 93.9092 75.3163 93.7563 75.4692C93.4506 75.7749 93.4506 76.0806 93.7563 76.2334C93.9092 76.3862 94.2149 76.5391 94.0621 76.8448C93.9092 76.9976 93.6035 77.1504 93.4506 77.3033C92.9921 77.9146 93.6035 78.3732 93.9092 78.8317C93.9092 78.8317 94.0621 78.8317 94.0621 78.6788C93.7564 78.3732 93.4506 78.0675 93.4506 77.609C93.4506 77.3033 93.9092 77.1504 94.0621 76.9976C94.3677 76.5391 93.6035 76.3862 93.4506 75.9277C93.2978 75.4692 94.062 75.3163 94.2149 74.8578C94.2149 74.5521 94.062 74.3993 93.9092 74.2464C93.9092 73.9408 93.9092 73.4822 93.9092 73.0237C94.062 73.0237 94.062 73.0237 93.9092 73.0237Z" fill="#263138"/>
<path fill-rule="evenodd" clip-rule="evenodd" d="M93.1449 73.0237C92.8392 73.4822 92.9921 73.9408 93.2978 74.2464C93.4506 74.3993 93.7563 74.705 93.4506 75.0107C93.2978 75.1635 93.1449 75.3163 92.9921 75.4692C92.6864 75.7749 92.6864 76.0806 92.9921 76.2334C93.1449 76.3862 93.4506 76.5391 93.2978 76.8448C93.145 76.9976 92.8392 77.1504 92.6864 77.3033C92.2278 77.9146 92.8392 78.3732 93.1449 78.8317C93.1449 78.8317 93.2978 78.8317 93.2978 78.6788C92.9921 78.3732 92.6864 78.0675 92.6864 77.609C92.6864 77.3033 93.145 77.1504 93.2978 76.9976C93.6035 76.5391 92.8392 76.3862 92.6864 75.9277C92.5335 75.4692 93.2978 75.3163 93.4506 74.8578C93.4506 74.5521 93.2978 74.3993 93.1449 74.2464C92.9921 73.9408 92.9921 73.4822 93.1449 73.0237Z" fill="#263138"/>
<path fill-rule="evenodd" clip-rule="evenodd" d="M138.847 64.3117C139.152 63.8532 139 63.2418 138.541 62.7833C138.388 62.6304 138.235 62.4776 138.235 62.3248C138.235 62.1719 138.235 62.0191 138.388 62.0191C138.541 61.8662 138.694 61.7134 138.847 61.5606C139.152 61.2549 139.152 60.9492 138.694 60.6435C138.541 60.4907 138.235 60.3378 138.235 60.0321C138.388 59.7265 138.694 59.7264 138.847 59.5736C139.305 58.9622 138.694 58.3509 138.235 57.8924C138.235 57.8924 138.083 57.8924 138.083 58.0452C138.388 58.3509 138.694 58.5037 138.694 58.9623C138.847 59.2679 138.694 59.5736 138.388 59.8793C138.235 60.0322 138.083 60.0321 137.93 60.3378C137.93 60.4907 137.93 60.6435 138.083 60.7963C138.235 60.9492 138.388 61.102 138.541 61.2549C138.694 61.4077 138.541 61.7134 138.388 61.8662C138.083 62.0191 137.777 62.3248 137.777 62.7833C137.777 63.089 138.083 63.2418 138.235 63.3946C138.847 63.3946 138.847 63.8532 138.847 64.3117Z" fill="#263138"/>
<path fill-rule="evenodd" clip-rule="evenodd" d="M139.764 64.3117C140.07 63.8532 139.917 63.2418 139.458 62.7833C139.305 62.6305 139.152 62.4776 139.152 62.3248C139.152 62.172 139.152 62.0191 139.305 62.0191C139.458 61.8663 139.611 61.7134 139.764 61.5606C140.07 61.2549 140.07 60.9492 139.611 60.6435C139.458 60.4907 139.152 60.3379 139.152 60.0322C139.305 59.7265 139.611 59.7265 139.764 59.5736C140.222 58.9623 139.611 58.3509 139.152 57.8924C139.152 57.8924 139 57.8924 139 58.0452C139.305 58.3509 139.611 58.5038 139.611 58.9623C139.764 59.268 139.611 59.5737 139.305 59.8793C139.152 60.0322 139 60.0322 138.847 60.3378C138.847 60.4907 138.847 60.6435 139 60.7964C139.152 60.9492 139.305 61.1021 139.458 61.2549C139.611 61.4077 139.458 61.7134 139.305 61.8663C139 62.0191 138.694 62.3248 138.694 62.7833C138.694 63.089 139 63.2418 139.152 63.3947C139.917 63.3947 139.917 63.8532 139.764 64.3117Z" fill="#263138"/>
<path fill-rule="evenodd" clip-rule="evenodd" d="M97.4248 54.377L94.9792 105.885L123.103 110.928L137.471 105.885L135.637 54.377L122.186 43.0667L97.4248 54.377Z" fill="#3F7BFF"/>
<path opacity="0.5" fill-rule="evenodd" clip-rule="evenodd" d="M122.186 43.0667L123.104 110.928L137.471 105.885L135.637 54.377L122.186 43.0667Z" fill="black"/>
<path fill-rule="evenodd" clip-rule="evenodd" d="M121.116 44.5951L97.8833 54.6826L95.8963 104.967L121.575 109.247L121.116 44.5951Z" fill="#3F7BFF"/>
<path opacity="0.4" fill-rule="evenodd" clip-rule="evenodd" d="M121.116 44.5951L97.8833 54.6826L95.8963 104.967L121.575 109.247L121.116 44.5951Z" fill="white"/>
<path opacity="0.2" fill-rule="evenodd" clip-rule="evenodd" d="M99.106 55.447C98.8003 55.7527 98.4946 78.6789 98.4946 78.6789C100.023 78.0675 103.691 71.801 103.08 71.4954C102.469 71.1897 100.176 66.7573 100.787 62.4777C101.246 58.351 103.386 54.3771 109.041 53.0015C114.697 51.4731 117.142 48.1106 116.684 47.9578C116.225 47.9578 99.106 55.447 99.106 55.447Z" fill="white"/>
<path fill-rule="evenodd" clip-rule="evenodd" d="M121.269 45.3593L98.4947 55.1411L96.5077 104.356L121.575 108.483V109.247L95.8963 104.967L98.0362 54.6826L121.116 44.5951L121.269 45.3593Z" fill="#3F7BFF"/>
<path opacity="0.5" fill-rule="evenodd" clip-rule="evenodd" d="M121.269 45.3593L98.4947 55.1411L96.5077 104.356L121.575 108.483V109.247L95.8963 104.967L97.8833 54.6826L121.116 44.5951L121.269 45.3593Z" fill="black"/>
<path opacity="0.3" fill-rule="evenodd" clip-rule="evenodd" d="M112.251 54.2243C115.155 55.7527 116.684 59.8795 115.614 64.4647C114.391 69.5085 110.417 73.0238 106.596 72.1068C106.443 72.1068 106.137 71.9539 105.984 71.9539C106.443 72.1068 106.749 72.2596 107.207 72.4125C111.028 73.1767 115.003 69.8142 116.225 64.7704C117.448 59.8795 115.614 55.447 112.251 54.2243Z" fill="black"/>
<path fill-rule="evenodd" clip-rule="evenodd" d="M115.767 64.4645C114.544 69.5082 110.57 73.0236 106.749 72.1065C102.927 71.3423 100.94 66.6042 102.01 61.5604C103.233 56.5167 107.207 53.0013 111.028 53.9184C114.85 54.6826 116.989 59.4207 115.767 64.4645Z" fill="#3F7BFF"/>
<path fill-rule="evenodd" clip-rule="evenodd" d="M113.321 64.0059C112.557 67.5213 109.653 69.9668 106.902 69.5082C104.303 68.8969 102.775 65.5344 103.539 62.019C104.303 58.5036 107.207 56.0582 109.959 56.6695C112.71 56.9752 114.238 60.3377 113.321 64.0059Z" fill="#3F7BFF"/>
<path opacity="0.3" fill-rule="evenodd" clip-rule="evenodd" d="M113.321 64.0059C112.557 67.5213 109.653 69.9668 106.902 69.5082C104.303 68.8969 102.775 65.5344 103.539 62.019C104.303 58.5036 107.207 56.0582 109.959 56.6695C112.71 56.9752 114.238 60.3377 113.321 64.0059Z" fill="white"/>
<path opacity="0.3" fill-rule="evenodd" clip-rule="evenodd" d="M111.028 56.8224C113.168 57.8922 114.085 60.9491 113.321 64.0059C112.557 67.5213 109.653 69.9667 106.901 69.3554C106.749 69.3554 106.596 69.3554 106.443 69.2025C106.749 69.3554 107.054 69.5082 107.36 69.5082C109.958 70.1196 112.863 67.6741 113.78 64.0059C114.544 60.7962 113.474 57.5866 111.028 56.8224Z" fill="black"/>
<path fill-rule="evenodd" clip-rule="evenodd" d="M108.736 67.3685C107.36 67.0628 106.749 65.2287 107.207 63.2417C107.666 61.2548 109.194 59.8792 110.417 60.1849C111.334 60.3378 111.946 61.2548 112.098 62.4775C112.251 60.1849 111.181 58.198 109.653 57.7394C107.666 57.2809 105.526 59.4207 104.762 62.3247C103.997 65.2287 105.067 67.9798 107.054 68.4384C108.277 68.744 109.5 67.9798 110.57 66.7571C110.111 67.2156 109.347 67.3685 108.736 67.3685Z" fill="#3F7BFF"/>
<path opacity="0.3" fill-rule="evenodd" clip-rule="evenodd" d="M108.736 67.3685C107.36 67.0628 106.749 65.2287 107.207 63.2417C107.666 61.2548 109.194 59.8792 110.417 60.1849C111.334 60.3378 111.946 61.2548 112.098 62.4775C112.251 60.1849 111.181 58.198 109.653 57.7394C107.666 57.2809 105.526 59.4207 104.762 62.3247C103.997 65.2287 105.067 67.9798 107.054 68.4384C108.277 68.744 109.5 67.9798 110.57 66.7571C110.111 67.2156 109.347 67.3685 108.736 67.3685Z" fill="black"/>
<path opacity="0.3" fill-rule="evenodd" clip-rule="evenodd" d="M107.666 63.3946C107.666 63.3946 105.526 61.8662 105.373 62.1719C105.22 62.4775 104.914 62.9361 105.22 63.2417C105.526 63.5474 107.666 64.4645 107.666 64.1588C107.666 63.8531 107.666 63.5474 107.666 63.3946Z" fill="black"/>
<path opacity="0.3" fill-rule="evenodd" clip-rule="evenodd" d="M108.124 63.0888C108.124 63.0888 105.373 61.7133 105.373 61.4076C105.373 60.9491 107.207 57.7394 109.041 57.8922C111.028 58.0451 110.417 61.7133 110.417 61.7133L108.124 63.0888Z" fill="black"/>
<path fill-rule="evenodd" clip-rule="evenodd" d="M111.793 64.1587C111.181 66.1456 109.958 67.8269 108.583 67.3684C107.207 67.0627 106.749 65.2286 107.207 63.2417C107.666 61.2547 109.194 59.8791 110.417 60.1848C111.793 60.3377 112.557 61.8661 111.793 64.1587Z" fill="#3F7BFF"/>
<path fill-rule="evenodd" clip-rule="evenodd" d="M111.028 63.8531C110.723 64.923 109.958 65.6872 109.194 65.5344C108.43 65.3815 108.124 64.3116 108.277 63.2417C108.583 62.1718 109.347 61.4076 110.111 61.5605C110.876 61.7133 111.334 62.7832 111.028 63.8531Z" fill="#263138"/>
<path fill-rule="evenodd" clip-rule="evenodd" d="M111.946 63.7002C111.487 65.5343 110.417 67.5212 108.583 68.1326C107.819 68.4383 107.054 68.2855 106.29 67.8269C105.526 67.3684 105.067 66.4513 104.914 65.6871C104.303 63.7002 104.762 61.2547 105.984 59.5735C106.902 58.1979 108.583 56.9752 110.264 57.7394C111.181 58.1979 111.64 59.1149 111.946 60.032C112.251 61.2547 112.098 62.4775 111.946 63.7002C111.946 63.853 111.793 63.853 111.946 63.7002C112.404 62.6303 112.404 61.4076 112.098 60.3377C111.946 59.4206 111.487 58.5036 110.723 58.045C110.111 57.5865 109.347 57.4337 108.583 57.5865C107.666 57.7394 106.902 58.3507 106.443 58.9621C105.067 60.6434 104.303 63.0888 104.762 65.2286C105.067 66.9099 106.137 68.744 108.124 68.4383C109.041 68.2854 109.959 67.6741 110.57 67.0627C111.181 66.1457 111.793 64.9229 111.946 63.7002Z" fill="#263138"/>
<path opacity="0.3" fill-rule="evenodd" clip-rule="evenodd" d="M123.103 110.623C122.645 110.164 122.339 109.553 121.881 109.094C121.881 109.094 121.881 109.247 122.033 109.247C122.033 108.636 122.033 108.024 122.033 107.413C122.033 105.732 122.033 104.203 122.033 102.522C122.033 100.077 122.033 97.6313 122.033 95.3386C122.033 92.4346 122.033 89.5307 122.033 86.6267C122.033 83.417 122.033 80.2073 122.033 76.9976C122.033 73.788 122.033 70.5783 122.033 67.3686C122.033 64.4646 122.033 61.5606 122.033 58.5038C122.033 56.0583 122.033 53.6129 122.033 51.3202C122.033 49.639 122.033 47.9577 122.033 46.4293C122.033 46.2765 122.033 44.5952 122.033 44.5952C122.033 44.5952 121.881 44.748 122.033 44.748C122.033 44.748 122.033 44.5952 122.186 44.5952C122.339 44.4424 122.339 44.2895 122.492 44.1367C122.645 43.831 122.798 43.6782 122.95 43.3725C123.103 43.0668 122.645 42.7611 122.492 43.0668C122.339 43.3725 122.186 43.5253 122.033 43.831C121.881 43.9839 121.728 44.2895 121.728 44.4424V44.5952C121.728 44.9009 121.728 45.2066 121.728 45.5123C121.728 47.0407 121.728 48.5691 121.728 49.9447C121.728 52.3901 121.728 54.6828 121.728 57.1282C121.728 60.1851 121.728 63.089 121.728 66.1459C121.728 69.3555 121.728 72.7181 121.728 75.9278C121.728 79.2903 121.728 82.4999 121.728 85.8625C121.728 88.9193 121.728 91.9761 121.728 95.033C121.728 97.4784 121.728 100.077 121.728 102.522C121.728 104.203 121.728 105.885 121.728 107.566C121.728 108.024 121.728 108.483 121.728 108.942C121.728 109.247 121.728 109.4 121.881 109.553C122.186 110.011 122.645 110.47 122.95 110.928C122.95 111.234 123.256 110.928 123.103 110.623Z" fill="black"/>
<path opacity="0.5" fill-rule="evenodd" clip-rule="evenodd" d="M110.57 75.9276C110.111 75.9276 109.653 75.9276 109.194 75.9276H109.347C114.85 76.2333 118.824 82.6526 118.365 90.1418C117.907 97.0197 113.933 102.522 109.041 103.286C114.391 103.439 119.129 97.6311 119.588 90.1418C120.047 82.6526 115.92 76.2333 110.57 75.9276Z" fill="black"/>
<path fill-rule="evenodd" clip-rule="evenodd" d="M118.365 90.2948C117.907 97.9369 113.168 103.745 107.666 103.439C102.163 103.134 98.189 96.7142 98.6475 89.2249C99.1061 81.5829 103.844 75.7749 109.347 76.0806C114.85 76.2334 118.824 82.6528 118.365 90.2948Z" fill="#3F7BFF"/>
<path fill-rule="evenodd" clip-rule="evenodd" d="M115.461 89.989C115.92 84.0281 113.015 79.1372 108.888 78.8315C104.762 78.5258 101.093 83.1111 100.635 88.9191C100.176 94.8799 103.08 99.7708 107.207 100.076C108.43 100.229 109.653 99.7708 110.876 99.0066C105.22 100.382 105.067 93.3515 110.57 89.5304C113.015 88.9191 115.002 88.4605 115.461 89.989Z" fill="#3F7BFF"/>
<path opacity="0.3" fill-rule="evenodd" clip-rule="evenodd" d="M115.461 89.989C115.92 84.0281 113.015 79.1372 108.888 78.8315C104.762 78.5258 101.093 83.1111 100.635 88.9191C100.176 94.8799 103.08 99.7708 107.207 100.076C108.43 100.229 109.653 99.7708 110.876 99.0066C105.22 100.382 105.067 93.3515 110.57 89.5304C113.015 88.9191 115.002 88.4605 115.461 89.989Z" fill="black"/>
<path opacity="0.3" fill-rule="evenodd" clip-rule="evenodd" d="M107.513 89.8362C107.513 89.8362 102.316 85.4038 102.163 85.5567C102.01 85.8623 101.552 86.9323 101.704 87.3908C101.857 87.8493 107.513 91.3646 107.666 91.059C107.818 90.7533 107.513 89.8362 107.513 89.8362Z" fill="black"/>
<path opacity="0.3" fill-rule="evenodd" clip-rule="evenodd" d="M108.583 90.142C108.583 90.142 102.775 84.4868 102.622 84.1812C102.622 83.8755 104.914 78.9846 108.736 79.2902C112.557 79.5959 114.085 83.5698 113.933 83.8755C113.78 84.1812 110.723 90.142 110.723 90.142H108.583Z" fill="black"/>
<path opacity="0.3" fill-rule="evenodd" clip-rule="evenodd" d="M109.194 77.6088C107.054 77.456 104.914 78.6787 103.386 80.36C104.914 79.2901 107.207 77.9145 108.888 78.0674C113.78 78.3731 116.684 83.5697 116.225 89.8362C115.92 96.1027 111.64 100.994 106.749 100.841C105.373 100.688 104.303 99.7709 103.08 98.8538C104.303 100.077 105.679 101.452 107.513 101.452C112.404 101.758 116.684 96.4084 116.989 89.6833C117.448 82.9583 114.085 77.9145 109.194 77.6088Z" fill="black"/>
<path fill-rule="evenodd" clip-rule="evenodd" d="M116.225 89.9892C116.072 92.2818 115.461 94.5744 114.391 96.5614C113.474 98.2426 112.098 99.6182 110.417 100.382C108.736 101.147 106.901 101.147 105.373 100.382C103.692 99.6182 102.469 98.0898 101.705 96.4085C100.635 94.4216 100.329 92.129 100.329 89.9892C100.329 87.6965 100.787 85.4039 101.857 83.2641C102.774 81.5829 103.997 79.9016 105.679 78.9846C107.207 78.0675 109.041 77.9147 110.57 78.526C112.251 79.1374 113.627 80.513 114.544 82.0414C115.614 83.8755 116.225 86.1681 116.225 88.3079C116.225 88.7664 116.225 89.3778 116.225 89.9892C116.531 87.6965 116.225 85.4039 115.308 83.2641C114.544 81.5829 113.321 79.9016 111.64 78.8317C110.111 77.9147 108.277 77.7618 106.596 78.3732C104.762 78.9846 103.386 80.3601 102.316 81.8886C101.093 83.7227 100.329 86.0153 100.023 88.3079C99.7175 90.6005 100.023 93.046 100.787 95.3386C101.399 97.1727 102.622 98.854 104.15 100.077C105.526 101.147 107.36 101.452 109.041 101.147C110.876 100.688 112.404 99.4654 113.474 98.0898C114.85 96.2557 115.614 94.1159 116.072 91.9761C116.225 91.0591 116.378 90.6005 116.225 89.9892C116.378 89.8363 116.225 89.8363 116.225 89.9892Z" fill="#263138"/>
<path fill-rule="evenodd" clip-rule="evenodd" d="M115.461 89.9892C115.308 92.129 114.697 94.1159 113.627 95.95C112.71 97.4784 111.487 98.854 109.958 99.4654C108.43 100.077 106.749 100.077 105.373 99.3125C103.844 98.5483 102.774 97.1727 102.01 95.6443C101.093 93.8102 100.787 91.6704 100.787 89.5307C100.787 87.3909 101.399 85.2511 102.316 83.2641C103.08 81.7357 104.303 80.2073 105.831 79.2903C107.207 78.5261 108.888 78.3732 110.417 78.8317C111.945 79.4431 113.168 80.8187 113.932 82.1943C114.85 84.0284 115.308 86.0153 115.461 88.0022C115.461 88.9193 115.461 89.3778 115.461 89.9892C115.767 87.8494 115.461 85.5568 114.697 83.5698C114.085 81.8886 113.015 80.3601 111.487 79.4431C110.111 78.6789 108.43 78.3732 106.901 78.8317C105.22 79.4431 103.844 80.6658 102.927 82.0414C101.705 83.7227 101.093 85.8625 100.787 88.0022C100.482 90.142 100.635 92.4346 101.399 94.5744C102.01 96.2557 102.927 97.9369 104.303 99.0068C105.526 99.9239 107.207 100.382 108.736 100.077C110.417 99.771 111.793 98.5483 112.863 97.1727C114.085 95.4915 114.85 93.5045 115.308 91.5176C115.461 91.0591 115.614 90.4477 115.461 89.9892C115.614 89.8363 115.461 89.8363 115.461 89.9892Z" fill="#263138"/>
<path fill-rule="evenodd" clip-rule="evenodd" d="M113.015 90.7533C112.251 92.8931 110.264 94.2687 108.583 93.8101C106.749 93.3516 105.984 91.059 106.596 88.9192C107.36 86.7794 109.347 85.4039 111.028 85.8624C112.862 86.3209 113.78 88.4607 113.015 90.7533Z" fill="#263138"/>
<path opacity="0.3" fill-rule="evenodd" clip-rule="evenodd" d="M97.2719 54.6826C97.4248 54.6826 97.5777 54.8355 97.7305 54.8355C97.7305 54.6826 97.5777 54.6826 97.5777 54.5298C97.5777 54.9883 97.5777 55.4468 97.5777 55.9054C97.5777 57.1281 97.4248 58.3508 97.4248 59.5735C97.4248 61.4076 97.2719 63.2417 97.2719 64.923C97.1191 67.0628 97.1191 69.3554 96.9663 71.4952C96.8134 73.9407 96.8134 76.2333 96.6606 78.6787C96.5077 81.1242 96.5077 83.5697 96.3549 86.0151C96.202 88.3078 96.202 90.6004 96.0492 92.893C95.8963 94.88 95.8963 96.7141 95.7435 98.701C95.7435 100.077 95.5906 101.452 95.5906 102.828C95.5906 103.439 95.4378 104.203 95.4378 104.815C95.4378 104.815 95.4378 104.815 95.4378 104.968C95.4378 104.968 95.4378 104.815 95.5906 104.815C95.2849 105.12 95.1321 105.426 94.8264 105.579C94.5207 105.885 94.9792 106.19 95.1321 105.885C95.2849 105.732 95.4378 105.579 95.5906 105.426C95.7435 105.273 95.8963 105.12 95.8963 104.968C95.8963 104.968 95.8963 104.968 95.8963 104.815C95.8963 104.509 95.8963 104.356 95.8963 104.05C95.8963 102.981 96.0492 101.911 96.0492 100.841C96.0492 99.1595 96.202 97.3254 96.202 95.6442C96.3549 93.5044 96.3548 91.2118 96.5077 89.072C96.6605 86.6265 96.6606 84.181 96.8134 81.7356C96.9663 79.2901 96.9663 76.6918 97.1191 74.2463C97.272 71.9537 97.272 69.5082 97.4248 67.2156C97.5777 65.2287 97.5777 63.2418 97.7305 61.2548C97.7305 59.8792 97.8834 58.3508 97.8834 56.9752C97.8834 56.3639 97.8833 55.5997 98.0362 54.9883C98.0362 54.9883 98.0362 54.9883 98.0362 54.8355C98.0362 54.6826 98.0362 54.6826 97.8834 54.5298C97.7305 54.5298 97.5777 54.3769 97.4248 54.3769C97.272 54.0713 96.9662 54.5298 97.2719 54.6826Z" fill="black"/>
<path fill-rule="evenodd" clip-rule="evenodd" d="M108.583 63.7004C108.583 63.7004 108.43 65.2296 109.653 65.2296C110.57 65.2296 110.876 64.0062 110.876 64.0062L108.583 63.7004Z" fill="white"/>
<path opacity="0.2" fill-rule="evenodd" clip-rule="evenodd" d="M107.054 91.059C107.054 91.2119 107.666 94.1159 110.264 93.1988C112.862 92.2818 112.862 88.7664 112.862 88.7664C111.487 90.7534 109.041 91.6704 107.054 91.059Z" fill="white"/>
<path opacity="0.1" fill-rule="evenodd" clip-rule="evenodd" d="M125.243 45.665L126.008 67.2156V46.2763L125.243 45.665Z" fill="black"/>
<path opacity="0.1" fill-rule="evenodd" clip-rule="evenodd" d="M130.44 90.1419L129.064 51.9315L129.217 108.941L130.44 90.1419Z" fill="black"/>
<path opacity="0.1" fill-rule="evenodd" clip-rule="evenodd" d="M130.899 50.4031L131.816 86.4737V51.1673L130.899 50.4031Z" fill="black"/>
<path opacity="0.1" fill-rule="evenodd" clip-rule="evenodd" d="M132.886 107.566C132.886 107.566 133.956 89.3778 133.956 88.9192C133.956 88.4607 133.497 73.6351 133.497 73.6351C133.497 73.6351 134.567 86.9323 134.72 88.9192C134.873 90.9062 134.261 107.107 134.261 107.107L132.886 107.566Z" fill="black"/>
<path opacity="0.1" fill-rule="evenodd" clip-rule="evenodd" d="M134.567 53.4598C134.109 53.7655 133.956 70.1196 134.567 71.4952C134.567 71.4952 134.261 58.1979 134.567 56.8224C134.873 55.5996 135.179 53.9184 135.179 53.9184L134.567 53.4598Z" fill="black"/>
<path opacity="0.1" fill-rule="evenodd" clip-rule="evenodd" d="M124.632 110.317C124.632 110.317 125.549 101.452 125.549 100.382C125.549 99.3123 125.09 83.8753 125.09 83.8753C125.09 83.8753 126.619 98.2424 126.772 100.688C126.925 103.133 126.008 109.858 126.008 109.858L124.632 110.317Z" fill="black"/>
<path opacity="0.1" fill-rule="evenodd" clip-rule="evenodd" d="M125.702 81.7356C125.702 81.7356 125.243 67.9799 125.09 68.5912C125.09 69.0498 127.23 73.0236 125.702 81.7356Z" fill="black"/>
<mask id="mask0_0_1" style="mask-type:alpha" maskUnits="userSpaceOnUse" x="0" y="9" width="266" height="173">
<rect y="8.99994" width="266" height="173" rx="30" fill="#136AC6"/>
</mask>
<g mask="url(#mask0_0_1)">
<path d="M384.106 194.273C376.728 184.288 325.639 176.539 251.857 176.539C178.076 176.539 117.224 184.288 108.393 194.273H107.275V196.769C107.275 207.946 172.002 216.999 251.857 216.999C331.713 216.999 385 207.946 385 196.769V194.273H384.068H384.106Z" fill="#C1BFBA"/>
<path d="M385 194.273C385 205.449 331.713 214.503 251.857 214.503C172.002 214.503 107.275 205.449 107.275 194.273C107.275 183.096 172.002 174.043 251.857 174.043C331.713 174.043 385 183.096 385 194.273Z" fill="#F9F5EF"/>
<g style="mix-blend-mode:multiply" opacity="0.6">
<path d="M377.249 194.273C377.249 201.314 338.644 204.406 279.283 204.406C219.923 204.406 171.815 198.706 171.815 191.665C171.815 184.623 210.83 178.998 270.154 178.998C329.477 178.998 377.212 187.231 377.212 194.273H377.249Z" fill="#D4D2CD"/>
</g>
<g style="mix-blend-mode:multiply" opacity="0.6">
<path d="M207.514 187.231C212.768 184.735 219.103 185.89 224.692 185.145C234.232 183.878 243.883 183.245 253.497 183.021C273.023 182.574 292.624 183.282 312.113 184.325C328.471 185.182 345.054 186.561 361.189 189.541C365.996 190.435 372.74 191.553 376.131 195.539C376.243 195.651 376.318 195.8 376.392 195.912C376.877 195.39 377.175 194.869 377.175 194.273C377.175 187.231 329.477 178.998 270.117 178.998C210.756 178.998 171.778 184.661 171.778 191.665C171.778 195.241 184.224 198.483 204.235 200.792C202.968 195.539 202.632 189.504 207.477 187.231H207.514Z" fill="#D4D2CD"/>
</g>
<path d="M149.045 193.904H94.6338C94.6338 193.904 84.405 194.836 85.0273 182V77.6853H149.045V193.904Z" fill="#DDDBD9"/>
<path d="M144.129 188.274H96.953C96.953 188.274 88.0843 189.131 88.6433 177.47V82.6544H144.129V188.274Z" fill="#F9F5EF"/>
<path d="M126.764 97.9293C126.764 104.002 121.808 108.957 115.734 108.957C109.66 108.957 104.704 104.002 104.704 97.9293C104.704 91.8566 109.66 86.9016 115.734 86.9016C121.808 86.9016 126.764 91.8566 126.764 97.9293Z" fill="#ABAAA8"/>
<path d="M124.789 97.9294C124.789 102.922 120.727 106.983 115.734 106.983C110.741 106.983 106.679 102.922 106.679 97.9294C106.679 92.9371 110.741 88.8763 115.734 88.8763C120.727 88.8763 124.789 92.9371 124.789 97.9294Z" fill="#DDDBD9"/>
<g style="mix-blend-mode:screen">
<path d="M115.734 94.39C115.734 96.3273 114.169 97.9293 112.194 97.9293C110.219 97.9293 108.654 96.3646 108.654 94.39C108.654 92.4155 110.219 90.8507 112.194 90.8507C114.169 90.8507 115.734 92.4155 115.734 94.39Z" fill="#DDDBD9"/>
</g>
</g>
<path d="M65.0461 1.72314L65.0461 73.3573C65.0461 73.3573 65.0461 79.0235 70.1636 79.7145L82.4732 79.7145L82.4732 1.72314L65 1.72314L65.0461 1.72314Z" fill="#DDDBD9"/>
<path d="M67.3514 18.0309L67.3514 70.9619C67.3514 70.9619 67.3514 75.154 71.1318 75.6607L80.2603 75.6607L80.2603 18.0309L67.3514 18.0309Z" fill="#F9F5EF"/>
<rect x="13.9847" y="-1" width="266" height="173" rx="30" transform="rotate(4.63666 13.9847 -1)" stroke="black" stroke-width="2" stroke-miterlimit="22.9256" stroke-linecap="round" stroke-linejoin="round" stroke-dasharray="4 4"/>
</svg>
