<svg width="201" height="271" viewBox="0 0 201 271" fill="none" xmlns="http://www.w3.org/2000/svg">
<path fill-rule="evenodd" clip-rule="evenodd" d="M144.828 176.229C165.453 172.544 179.613 151.304 180.569 130.282C181.525 109.26 172.327 89.1742 160.598 71.8209C145.458 49.3924 124.824 29.5531 98.974 21.9656C73.1237 14.3781 41.626 22.0475 27.15 45.0995C13.6084 66.5409 17.761 94.1477 24.07 118.49C29.0251 137.743 35.5915 157.929 50.4978 170.983C71.9078 190.117 104.818 189.882 132.619 183.061C133.01 191.53 133.114 200.043 133.462 208.224C140.712 209.488 148.077 209.559 155.312 208.767C159.384 214.331 161.616 221.347 161.461 228.134C155.348 230.522 149.524 232.867 143.412 235.255C153.568 240.199 163.768 245.431 174.213 250.333C178.006 240.353 180.275 230.014 181.35 219.561C177.784 221.272 174.505 222.941 170.938 224.653C169.612 217.794 167.22 205.803 165.894 198.944L144.664 198.603L144.828 176.229Z" fill="#174972"/>
<path fill-rule="evenodd" clip-rule="evenodd" d="M161.21 103.192C157.367 95.2419 153.524 87.2913 148.616 80.0887C143.709 72.8861 137.449 66.4745 129.724 62.0476C138.585 64.2456 146.815 70.0672 152.585 77.1402C158.356 84.2132 162.818 92.365 166.949 100.272C164.863 102.056 164 102.185 161.21 103.192Z" fill="white"/>
<path fill-rule="evenodd" clip-rule="evenodd" d="M162.894 108.524C165.152 107.891 167.411 107.258 169.669 106.625C170.835 108.508 171.555 111.341 171.901 113.641C170.348 115.051 167.845 116.015 165.831 116.317C165.399 113.441 164.103 110.695 162.894 108.524Z" fill="white"/>
<path fill-rule="evenodd" clip-rule="evenodd" d="M74.2819 172.708C62.7732 168.555 53.9382 158.707 47.9366 148.14C42.1794 137.243 39.2124 125.338 35.9578 113.476C33.4609 132.083 39.6092 151.449 52.5449 165.092C54.6602 167.421 57.0198 169.419 59.8683 170.755C64.5293 172.408 69.6642 171.343 74.2819 172.708Z" fill="white"/>
<path fill-rule="evenodd" clip-rule="evenodd" d="M116.566 193.7C119.127 195.079 121.688 196.459 124.45 197.221C122.352 202.829 121.447 208.552 121.737 214.39C121.823 214.965 121.91 215.54 122.241 215.784C122.572 216.029 122.859 215.985 123.147 215.942C128.585 216.89 133.849 216.687 139.229 215.292C136.38 213.955 133.043 213.28 130.123 213.424C129.26 213.554 128.066 213.439 127.361 212.663C126.987 212.131 126.9 211.556 126.814 210.981C126.524 205.143 127.428 199.42 129.239 193.855C125.212 194.46 120.767 194.245 116.566 193.7Z" fill="#174972"/>
<path fill-rule="evenodd" clip-rule="evenodd" d="M128.421 29.9023C111.082 16.3316 87.6756 11.3183 66.3583 16.284C72.0538 13.0761 79.0449 12.6144 85.4606 12.2391C93.6457 11.8922 102.162 11.7897 110.204 14.405C117.915 16.776 125.196 22.1523 128.421 29.9023Z" fill="#174972"/>
<path fill-rule="evenodd" clip-rule="evenodd" d="M17.3303 114.806C13.8014 99.1634 13.0625 82.5135 15.6606 66.5386C8.68955 80.8178 8.69527 98.46 15.5461 112.722C15.9635 113.541 16.4241 114.648 17.3303 114.806Z" fill="#FFD95A"/>
<path fill-rule="evenodd" clip-rule="evenodd" d="M170.146 166.539C167.989 169.804 165.789 172.781 162.927 175.269C176.001 168.307 184.656 153.48 184.176 138.555C180.67 148.492 175.926 158.026 170.146 166.539Z" fill="#174972"/>
<path d="M52.7406 60.1512L53.785 67.0963L57.2577 66.5748C57.7336 66.5033 58.168 66.3474 58.5607 66.1069C58.9523 65.8584 59.2817 65.5532 59.549 65.1914C59.8163 64.8296 60.0071 64.4256 60.1215 63.9795C60.2428 63.5241 60.2676 63.0585 60.196 62.5826C60.1245 62.1066 59.9644 61.6729 59.7158 61.2813C59.474 60.8804 59.1722 60.5463 58.8103 60.279C58.4484 60.0116 58.0443 59.8207 57.5982 59.7063C57.1508 59.5837 56.6892 59.5582 56.2133 59.6297L52.7406 60.1512ZM54.8276 74.0293L51.355 74.5508L48.7457 57.2001L55.691 56.1571C56.3283 56.0614 56.9541 56.0541 57.5684 56.135C58.1815 56.2079 58.7653 56.3595 59.3195 56.5897C59.8807 56.8106 60.4031 57.1033 60.8869 57.4679C61.3775 57.8231 61.8109 58.2364 62.187 58.7079C62.5711 59.1781 62.8881 59.6955 63.138 60.2601C63.396 60.8235 63.5729 61.4238 63.6687 62.0611C63.8118 63.0129 63.7656 63.9395 63.53 64.841C63.2931 65.7344 62.9074 66.543 62.3728 67.2666C61.8383 67.9903 61.1748 68.5972 60.3824 69.0874C59.598 69.5763 58.7299 69.8923 57.7781 70.0352L54.3054 70.5567L54.8276 74.0293ZM79.4751 70.328L78.6765 70.4479L77.1264 68.8619C76.8543 69.1914 76.5596 69.5079 76.2422 69.8113C75.9318 70.1053 75.5969 70.3742 75.2376 70.6179C74.8771 70.8535 74.499 71.0546 74.1034 71.2213C73.7158 71.3867 73.3123 71.5009 72.8928 71.5639C71.9813 71.7008 71.0992 71.6765 70.2464 71.4911C69.4017 71.3045 68.6332 70.9663 67.9409 70.4764C67.2554 69.9772 66.6756 69.3301 66.2013 68.5352C65.7271 67.7404 65.4087 66.8025 65.2462 65.7216C65.0945 64.7133 65.1291 63.7637 65.3498 62.8727C65.5693 61.9736 65.932 61.1768 66.4379 60.4822C66.9519 59.7863 67.5834 59.2131 68.3322 58.7625C69.0879 58.3025 69.9216 58.0041 70.8331 57.8673C71.2525 57.8043 71.6759 57.7943 72.103 57.8374C72.5302 57.8805 72.9513 57.9657 73.3664 58.0931C73.7815 58.2205 74.1813 58.3831 74.5658 58.5811C74.9583 58.7779 75.3297 58.9984 75.6799 59.2428L76.7314 57.5135L77.53 57.3936L79.4751 70.328ZM75.1559 64.2334C75.088 63.7817 74.9338 63.3595 74.6932 62.9667C74.4595 62.5646 74.1692 62.2246 73.8222 61.9468C73.474 61.6609 73.0837 61.4514 72.6513 61.3184C72.2257 61.1761 71.787 61.1389 71.3353 61.2067C70.8836 61.2746 70.4676 61.4154 70.0873 61.6292C69.7151 61.8418 69.4022 62.1198 69.1486 62.4631C68.9031 62.8051 68.729 63.2107 68.6263 63.6798C68.5224 64.1408 68.5129 64.6536 68.5978 65.2183C68.6827 65.7829 68.8432 66.2743 69.0794 66.6926C69.3143 67.1027 69.5994 67.4352 69.9346 67.69C70.278 67.9437 70.6588 68.1174 71.0771 68.2113C71.5035 68.304 71.9425 68.3165 72.3943 68.2486C72.846 68.1808 73.2549 68.0204 73.6211 67.7674C73.9941 67.5052 74.3056 67.1904 74.5555 66.8229C74.8042 66.4474 74.9818 66.0371 75.0881 65.5923C75.2013 65.1381 75.2239 64.6851 75.1559 64.2334ZM85.3072 69.4522L82.004 69.9482L80.0552 56.9897L80.8538 56.8697L82.1739 58.2428C82.6335 57.6789 83.1827 57.217 83.8214 56.8571C84.459 56.4892 85.1408 56.2507 85.8668 56.1417L88.7828 55.7038L89.2778 58.9948L86.3617 59.4327C86.0148 59.4848 85.6978 59.5984 85.4107 59.7735C85.1236 59.9486 84.8841 60.166 84.6922 60.4258C84.5003 60.6856 84.3629 60.9784 84.2799 61.3043C84.1969 61.6302 84.1815 61.9666 84.2337 62.3135L85.3072 69.4522ZM98.7623 67.4316C97.9637 67.5515 97.1911 67.515 96.4444 67.3219C95.6965 67.1208 95.0169 66.798 94.4057 66.3537C93.8013 65.9 93.2931 65.3453 92.881 64.6896C92.477 64.0326 92.215 63.3049 92.0949 62.5063L91.5162 58.6587L89.907 58.9003L89.412 55.6093L91.0213 55.3676L90.2425 50.189L93.5337 49.6948L94.3125 54.8734L99.3218 54.1211L99.8168 57.4122L94.8074 58.1644L95.386 62.0121C95.4382 62.3589 95.5519 62.6759 95.727 62.9631C95.901 63.2421 96.1179 63.4776 96.3777 63.6696C96.6375 63.8615 96.931 64.003 97.2582 64.0941C97.5841 64.1772 97.9205 64.1926 98.2674 64.1405L100.772 63.7644L101.267 67.0555L98.7623 67.4316ZM106.994 71.2434L106.494 67.9161L108.337 67.6641C108.66 67.6156 108.962 67.5166 109.245 67.3669C109.528 67.2172 109.78 67.0308 110.002 66.8077C110.232 66.5835 110.425 66.3277 110.58 66.0405C110.736 65.7614 110.852 65.4635 110.928 65.1469C110.588 65.3547 110.24 65.5636 109.884 65.7738C109.536 65.9828 109.172 66.1158 108.793 66.1727C107.995 66.2926 107.223 66.2641 106.479 66.0872C105.735 65.9103 105.058 65.6037 104.447 65.1674C103.844 64.7218 103.334 64.151 102.916 63.4549C102.504 62.7495 102.229 61.9331 102.089 61.0054L101.012 53.8425L104.303 53.3483L105.381 60.5112C105.45 60.971 105.575 61.3646 105.756 61.6921C105.944 62.0103 106.169 62.2694 106.43 62.4694C106.69 62.6613 106.977 62.7913 107.293 62.8594C107.616 62.9263 107.951 62.9337 108.298 62.8817C108.637 62.8308 108.944 62.7063 109.22 62.5082C109.502 62.3009 109.736 62.0512 109.924 61.7591C110.111 61.4671 110.244 61.15 110.325 60.808C110.404 60.4579 110.418 60.1094 110.366 59.7626L109.288 52.5997L112.616 52.1L114.319 63.4251C114.448 64.3378 114.399 65.2195 114.172 66.0702C113.946 66.9208 113.575 67.69 113.059 68.3778C112.552 69.0643 111.925 69.641 111.179 70.1078C110.433 70.5745 109.604 70.8764 108.692 71.0133L106.994 71.2434Z" fill="white"/>
<path d="M75.4123 94.3787C75.5142 95.0562 75.4816 95.7169 75.3144 96.3606C75.1461 96.9963 74.8694 97.5699 74.4844 98.0813C74.1074 98.5916 73.6359 99.0212 73.0697 99.3702C72.5116 99.718 71.8897 99.9433 71.204 100.046C70.591 100.138 69.9863 100.122 69.3901 99.997C68.7927 99.864 68.2332 99.6263 67.7115 99.284C67.3217 99.7632 66.8608 100.154 66.3289 100.457C65.8038 100.75 65.2307 100.943 64.6096 101.037C63.9239 101.14 63.2632 101.107 62.6275 100.938C61.9918 100.77 61.4147 100.498 60.8962 100.122C60.3858 99.7449 59.9567 99.2773 59.6088 98.7191C59.2597 98.1529 59.0342 97.531 58.9323 96.8534L57.6913 88.6016L60.9946 88.1055L62.2355 96.3574C62.2695 96.5833 62.342 96.791 62.453 96.9805C62.5708 97.1608 62.7139 97.3166 62.8821 97.4481C63.0572 97.5703 63.2482 97.6612 63.4552 97.7208C63.669 97.7712 63.8888 97.7794 64.1147 97.7455C64.3405 97.7116 64.5482 97.6392 64.7378 97.5282C64.9261 97.4092 65.086 97.2656 65.2174 97.0974C65.3476 96.9211 65.4385 96.7301 65.4901 96.5244C65.5485 96.3094 65.5607 96.089 65.5267 95.8632L64.2858 87.6113L67.5769 87.1171L68.8179 95.3689C68.8518 95.5948 68.9284 95.8019 69.0474 95.9902C69.1653 96.1705 69.3083 96.3263 69.4766 96.4578C69.6517 96.58 69.8427 96.6709 70.0496 96.7306C70.2634 96.7809 70.4832 96.7892 70.7091 96.7552C70.935 96.7213 71.1427 96.6489 71.3322 96.538C71.5205 96.4189 71.6764 96.2759 71.7997 96.1089C71.93 95.9327 72.0249 95.7411 72.0845 95.5341C72.1429 95.3192 72.1551 95.0987 72.1211 94.8729L70.8802 86.621L74.1714 86.1268L75.4123 94.3787ZM81.8155 98.2053L78.5123 98.7014L75.7884 80.5884L79.0916 80.0924L79.9523 85.8155C80.3027 85.4576 80.6785 85.1867 81.0798 85.0028C81.4798 84.8107 81.8976 84.682 82.3332 84.6166C83.1318 84.4966 83.9051 84.5372 84.6529 84.7384C85.3996 84.9314 86.0711 85.2554 86.6674 85.7103C87.2706 86.1558 87.7748 86.7111 88.18 87.3761C88.5921 88.0319 88.8582 88.759 88.9783 89.5576L90.0919 96.9625L86.7644 97.4622L85.6508 90.0573L85.675 90.0536C85.6241 89.7149 85.5116 89.4059 85.3377 89.1269C85.1625 88.8397 84.945 88.6002 84.6852 88.4082C84.4253 88.2163 84.1365 88.0782 83.8186 87.994C83.5007 87.9097 83.1724 87.893 82.8336 87.9439C82.4867 87.996 82.1698 88.1096 81.8826 88.2847C81.5955 88.4598 81.356 88.6772 81.1641 88.937C80.9722 89.1968 80.8348 89.4896 80.7518 89.8155C80.6676 90.1333 80.651 90.4617 80.702 90.8004L81.8155 98.2053ZM93.8692 79.5436C93.9153 79.8501 93.8979 80.1455 93.8169 80.4299C93.744 80.713 93.6219 80.9706 93.4505 81.2025C93.278 81.4264 93.0637 81.6194 92.8076 81.7816C92.5584 81.9345 92.2805 82.034 91.974 82.08C91.6675 82.126 91.3686 82.1132 91.0773 82.0414C90.7929 81.9604 90.5354 81.8383 90.3046 81.675C90.0807 81.5024 89.8882 81.2921 89.7271 81.044C89.5742 80.7948 89.4747 80.5169 89.4286 80.2104C89.3837 79.912 89.3977 79.6212 89.4706 79.338C89.5503 79.0456 89.6725 78.788 89.8369 78.5654C90.0083 78.3334 90.2186 78.141 90.4678 77.9881C90.7238 77.8259 91.0051 77.7218 91.3117 77.6758C91.6182 77.6298 91.9137 77.6473 92.1981 77.7283C92.4893 77.8 92.7509 77.9216 92.9829 78.093C93.2137 78.2563 93.4062 78.4666 93.5603 78.7239C93.7214 78.9719 93.8243 79.2451 93.8692 79.5436ZM95.7788 96.1085L92.4513 96.6082L90.5026 83.6496L93.83 83.1499L95.7788 96.1085ZM101.635 95.229L98.3077 95.7287L95.5838 77.6158L98.9112 77.1161L101.635 95.229ZM108.842 90.9052C108.977 90.9261 109.11 90.935 109.242 90.9317C109.372 90.9204 109.502 90.905 109.631 90.8857C109.953 90.8372 110.257 90.7462 110.542 90.6127C110.828 90.4791 111.087 90.3123 111.321 90.1122C111.562 89.9028 111.765 89.666 111.932 89.4018C112.105 89.1284 112.234 88.8367 112.32 88.527L115.106 90.5955C114.865 91.0772 114.568 91.5217 114.217 91.9291C113.874 92.3353 113.487 92.6945 113.055 93.0068C112.632 93.3178 112.171 93.5726 111.673 93.7711C111.184 93.9765 110.67 94.1198 110.129 94.2009C109.218 94.3378 108.333 94.2974 107.476 94.0798C106.626 93.8609 105.853 93.4944 105.157 92.9803C104.469 92.465 103.89 91.8179 103.418 91.0392C102.945 90.2524 102.633 89.3589 102.483 88.3586C102.329 87.3342 102.361 86.3725 102.581 85.4734C102.8 84.5744 103.164 83.7816 103.671 83.095C104.186 82.4073 104.818 81.838 105.567 81.3874C106.324 80.9356 107.158 80.6412 108.07 80.5043C108.61 80.4231 109.148 80.4083 109.684 80.4599C110.219 80.5114 110.735 80.6236 111.232 80.7966C111.736 80.9683 112.216 81.2013 112.673 81.4957C113.128 81.782 113.542 82.1199 113.914 82.5095L108.842 90.9052ZM109.511 83.8388C109.35 83.8053 109.191 83.792 109.035 83.7989C108.888 83.8046 108.733 83.8195 108.572 83.8438C108.12 83.9116 107.705 84.0605 107.327 84.2905C106.956 84.5111 106.645 84.7971 106.392 85.1485C106.148 85.4986 105.974 85.9042 105.87 86.3652C105.765 86.8182 105.753 87.3149 105.834 87.8553C105.853 87.9763 105.877 88.1128 105.908 88.2649C105.947 88.4157 105.991 88.57 106.04 88.7277C106.095 88.8761 106.154 89.0199 106.216 89.159C106.278 89.2981 106.35 89.4193 106.431 89.5226L109.511 83.8388Z" fill="white"/>
<path d="M75.8274 132.381L75.327 129.053L77.1698 128.801C77.4925 128.753 77.7952 128.654 78.0779 128.504C78.3606 128.354 78.613 128.168 78.8352 127.945C79.0654 127.721 79.2579 127.465 79.4127 127.178C79.5687 126.899 79.6847 126.601 79.7608 126.284C79.4209 126.492 79.0729 126.701 78.7168 126.911C78.3688 127.12 78.0052 127.253 77.6261 127.31C76.8275 127.43 76.0561 127.401 75.3118 127.224C74.5676 127.048 73.8904 126.741 73.2804 126.305C72.6772 125.859 72.1666 125.288 71.7484 124.592C71.3371 123.887 71.0618 123.07 70.9223 122.143L69.8451 114.98L73.1362 114.486L74.2134 121.648C74.2826 122.108 74.4078 122.502 74.589 122.829C74.7771 123.148 75.0016 123.407 75.2627 123.607C75.5225 123.799 75.8101 123.929 76.1256 123.997C76.4491 124.064 76.7843 124.071 77.1311 124.019C77.4699 123.968 77.777 123.844 78.0525 123.646C78.3347 123.438 78.5694 123.188 78.7564 122.896C78.9435 122.604 79.0773 122.287 79.1578 121.945C79.2372 121.595 79.2507 121.247 79.1986 120.9L78.1214 113.737L81.4488 113.237L83.152 124.562C83.281 125.475 83.2321 126.357 83.0053 127.207C82.7786 128.058 82.4076 128.827 81.8923 129.515C81.3852 130.202 80.7584 130.778 80.012 131.245C79.2655 131.712 78.4366 132.014 77.525 132.151L75.8274 132.381ZM97.4582 117.341C97.6038 118.309 97.5662 119.239 97.3455 120.13C97.1236 121.013 96.7602 121.805 96.2555 122.508C95.7496 123.203 95.12 123.788 94.3667 124.264C93.6202 124.731 92.7872 125.033 91.8676 125.171C90.9561 125.308 90.0709 125.264 89.2121 125.038C88.3602 124.803 87.5862 124.429 86.8902 123.914C86.2011 123.391 85.6206 122.74 85.1488 121.961C84.6758 121.174 84.3665 120.297 84.2209 119.329C84.0729 118.345 84.1093 117.407 84.33 116.516C84.5507 115.625 84.914 114.833 85.42 114.138C85.9328 113.434 86.5624 112.849 87.3088 112.382C88.0633 111.914 88.8963 111.612 89.8078 111.475C90.7274 111.337 91.6114 111.373 92.4597 111.584C93.3149 111.785 94.0865 112.144 94.7744 112.659C95.4611 113.166 96.0415 113.817 96.5158 114.612C96.9888 115.399 97.3029 116.309 97.4582 117.341ZM94.1307 117.841C94.0507 117.309 93.8898 116.842 93.648 116.441C93.4131 116.031 93.1234 115.695 92.7788 115.433C92.433 115.164 92.0463 114.978 91.6188 114.878C91.198 114.767 90.7618 114.746 90.3101 114.814C89.8583 114.882 89.4435 115.031 89.0657 115.261C88.6947 115.482 88.3836 115.772 88.1324 116.131C87.8881 116.481 87.7141 116.887 87.6102 117.348C87.5051 117.801 87.4925 118.293 87.5726 118.826C87.6478 119.326 87.8023 119.777 88.0359 120.179C88.2696 120.581 88.5553 120.918 88.893 121.189C89.2388 121.458 89.6233 121.656 90.0464 121.783C90.4765 121.899 90.9173 121.924 91.3691 121.856C91.8208 121.788 92.2316 121.64 92.6013 121.411C92.9792 121.181 93.2943 120.891 93.5467 120.539C93.799 120.188 93.9772 119.782 94.0811 119.321C94.193 118.859 94.2096 118.365 94.1307 117.841ZM109.572 120.719C109.342 121.001 109.091 121.274 108.817 121.537C108.55 121.792 108.263 122.025 107.957 122.236C107.649 122.439 107.324 122.611 106.983 122.753C106.65 122.902 106.303 123.004 105.94 123.058C105.141 123.178 104.37 123.15 103.626 122.973C102.881 122.796 102.204 122.489 101.594 122.053C100.991 121.607 100.48 121.036 100.062 120.34C99.6509 119.635 99.3755 118.819 99.236 117.891L98.1588 110.728L101.45 110.234L102.527 117.397C102.593 117.832 102.716 118.214 102.897 118.541C103.085 118.859 103.31 119.119 103.571 119.319C103.832 119.519 104.121 119.657 104.437 119.733C104.762 119.808 105.098 119.819 105.445 119.767C105.784 119.716 106.091 119.592 106.366 119.394C106.648 119.186 106.883 118.937 107.07 118.645C107.257 118.353 107.391 118.036 107.472 117.693C107.551 117.343 107.564 116.995 107.512 116.648L106.435 109.485L109.738 108.989L111.687 121.948L110.889 122.068L109.572 120.719Z" fill="white"/>
<path d="M82.7725 159.566L79.445 160.066L76.7538 142.171L77.5524 142.051L79.106 143.414C79.362 143.087 79.6487 142.771 79.966 142.468C80.2834 142.165 80.6182 141.896 80.9707 141.661C81.33 141.418 81.7074 141.213 82.1031 141.046C82.4987 140.879 82.9062 140.764 83.3257 140.701C84.2372 140.565 85.1171 140.602 85.9655 140.812C86.8207 141.014 87.5916 141.368 88.2783 141.876C88.973 142.382 89.5575 143.032 90.0318 143.827C90.5048 144.614 90.8183 145.519 90.9724 146.544C91.1325 147.609 91.1035 148.594 90.8852 149.502C90.6657 150.401 90.2983 151.194 89.7831 151.882C89.2747 152.56 88.6409 153.117 87.8815 153.553C87.1302 153.988 86.2988 154.273 85.3873 154.41C85.0969 154.454 84.8017 154.465 84.5016 154.444C84.2095 154.422 83.9144 154.38 83.6163 154.317C83.3251 154.246 83.032 154.162 82.7371 154.066C82.4503 153.969 82.171 153.866 81.8991 153.759L82.7725 159.566ZM87.657 147.042C87.5745 146.493 87.4118 146.014 87.1688 145.605C86.9339 145.195 86.6448 144.863 86.3015 144.61C85.9569 144.348 85.5708 144.167 85.1432 144.066C84.7157 143.965 84.276 143.949 83.8243 144.017C83.3725 144.085 82.9571 144.229 82.5781 144.451C82.2071 144.672 81.8954 144.958 81.643 145.309C81.3894 145.653 81.2067 146.055 81.0947 146.518C80.9908 146.979 80.9801 147.483 81.0626 148.032C81.1415 148.556 81.2983 149.023 81.5332 149.434C81.7762 149.843 82.07 150.178 82.4145 150.44C82.7591 150.701 83.1417 150.887 83.5625 150.997C83.9913 151.106 84.4315 151.126 84.8833 151.059C85.335 150.991 85.7498 150.842 86.1276 150.612C86.5055 150.382 86.8206 150.091 87.073 149.74C87.3253 149.389 87.5035 148.982 87.6074 148.521C87.7193 148.059 87.7359 147.566 87.657 147.042ZM105.335 144.387C105.481 145.355 105.443 146.284 105.222 147.175C105 148.058 104.637 148.851 104.132 149.554C103.626 150.248 102.997 150.834 102.243 151.31C101.497 151.777 100.664 152.079 99.7444 152.217C98.8329 152.354 97.9477 152.31 97.0889 152.084C96.2369 151.849 95.4629 151.474 94.767 150.96C94.0778 150.437 93.4974 149.786 93.0256 149.007C92.5526 148.22 92.2433 147.343 92.0977 146.375C91.9497 145.391 91.9861 144.453 92.2068 143.562C92.4275 142.671 92.7908 141.878 93.2967 141.184C93.8095 140.48 94.4392 139.895 95.1856 139.428C95.9401 138.96 96.7731 138.657 97.6846 138.52C98.6042 138.382 99.4882 138.419 100.336 138.63C101.192 138.831 101.963 139.189 102.651 139.705C103.338 140.212 103.918 140.863 104.393 141.658C104.866 142.445 105.18 143.355 105.335 144.387ZM102.007 144.887C101.927 144.354 101.767 143.888 101.525 143.487C101.29 143.077 101 142.741 100.656 142.479C100.31 142.209 99.9231 142.024 99.4955 141.923C99.0748 141.813 98.6386 141.792 98.1868 141.86C97.7351 141.928 97.3203 142.077 96.9424 142.307C96.5714 142.527 96.2604 142.817 96.0092 143.177C95.7649 143.527 95.5908 143.932 95.4869 144.394C95.3818 144.846 95.3693 145.339 95.4494 145.872C95.5246 146.372 95.679 146.823 95.9127 147.225C96.1464 147.627 96.4321 147.963 96.7698 148.234C97.1156 148.504 97.5 148.702 97.9232 148.828C98.3532 148.945 98.7941 148.97 99.2458 148.902C99.6976 148.834 100.108 148.686 100.478 148.457C100.856 148.227 101.171 147.936 101.423 147.585C101.676 147.234 101.854 146.828 101.958 146.366C102.07 145.904 102.086 145.411 102.007 144.887ZM119.685 142.232C119.831 143.2 119.793 144.129 119.573 145.02C119.351 145.903 118.987 146.696 118.483 147.399C117.977 148.093 117.347 148.679 116.594 149.155C115.847 149.622 115.014 149.924 114.095 150.062C113.183 150.199 112.298 150.155 111.439 149.929C110.587 149.694 109.813 149.319 109.117 148.805C108.428 148.282 107.848 147.631 107.376 146.852C106.903 146.065 106.594 145.188 106.448 144.22C106.3 143.236 106.337 142.298 106.557 141.407C106.778 140.516 107.141 139.723 107.647 139.029C108.16 138.325 108.79 137.74 109.536 137.273C110.291 136.805 111.124 136.502 112.035 136.366C112.955 136.227 113.839 136.264 114.687 136.475C115.542 136.676 116.314 137.035 117.002 137.55C117.688 138.057 118.269 138.708 118.743 139.503C119.216 140.29 119.53 141.2 119.685 142.232ZM116.358 142.732C116.278 142.199 116.117 141.733 115.875 141.332C115.64 140.922 115.351 140.586 115.006 140.324C114.66 140.054 114.274 139.869 113.846 139.768C113.425 139.658 112.989 139.637 112.537 139.705C112.086 139.773 111.671 139.922 111.293 140.152C110.922 140.372 110.611 140.662 110.36 141.022C110.115 141.372 109.941 141.778 109.837 142.239C109.732 142.691 109.72 143.184 109.8 143.717C109.875 144.217 110.029 144.668 110.263 145.07C110.497 145.472 110.783 145.808 111.12 146.079C111.466 146.349 111.851 146.547 112.274 146.673C112.704 146.79 113.145 146.815 113.596 146.747C114.048 146.679 114.459 146.531 114.829 146.302C115.206 146.072 115.522 145.781 115.774 145.43C116.026 145.079 116.204 144.673 116.308 144.212C116.42 143.749 116.437 143.256 116.358 142.732Z" fill="white"/>
</svg>
