<svg width="278" height="192" viewBox="0 0 278 192" fill="none" xmlns="http://www.w3.org/2000/svg">
<rect y="9" width="266" height="173" rx="30" fill="#136AC6"/>
<mask id="mask0_0_1" style="mask-type:alpha" maskUnits="userSpaceOnUse" x="0" y="9" width="266" height="173">
<rect y="9" width="266" height="173" rx="30" fill="#136AC6"/>
</mask>
<g mask="url(#mask0_0_1)">
<path d="M206.537 178.348C206.537 178.348 203.265 227.068 151.948 242.939C151.948 242.939 137.4 247.559 138.483 255.318C139.567 263.077 173.793 261.574 182.88 274.992L185.069 280.584H66.0742C66.0742 280.584 64.2612 272.914 68.6168 269.377C72.9945 265.84 79.8928 247.736 72.2649 229.477C64.615 211.218 56.6113 188.649 56.6113 174.612H205.078L206.537 178.37V178.348Z" fill="#F9F5EF"/>
<g style="mix-blend-mode:multiply" opacity="0.6">
<path d="M70.4961 269.554C71.469 267.741 72.884 266.26 74.0558 264.58C75.4045 262.635 76.5542 260.491 77.328 258.258C80.7771 248.377 78.9863 238.142 75.4929 228.549C71.9775 218.955 67.3345 209.848 63.819 200.254C62.1387 195.679 60.3478 191.014 59.9056 186.129C59.5519 182.349 59.7287 178.282 58.579 174.612H56.6113C56.6113 188.649 64.615 211.218 72.2649 229.477C79.9149 247.736 72.9945 265.84 68.6168 269.377C64.2612 272.914 66.0742 280.584 66.0742 280.584H69.5233C69.3907 276.826 68.7053 272.914 70.5183 269.554H70.4961Z" fill="#EBE9E3"/>
</g>
<g style="mix-blend-mode:multiply" opacity="0.6">
<path d="M195.549 175.828C194.753 181.885 194.045 188.008 192.188 193.844C188.628 205.184 180.89 215.197 171.847 222.779C163.689 229.61 154.27 234.561 145.492 240.486C142.286 242.652 138.793 244.73 136.206 247.67C134.88 249.173 133.465 251.14 133.641 253.262C133.818 255.429 135.233 257.219 137.091 258.28C140.606 260.314 144.873 260.734 148.853 260.999C143.082 259.54 138.837 257.971 138.483 255.34C137.4 247.581 151.948 242.961 151.948 242.961C203.265 227.09 206.537 178.37 206.537 178.37L205.078 174.612H195.703C195.659 175.032 195.593 175.43 195.549 175.828Z" fill="#EBE9E3"/>
</g>
<g style="mix-blend-mode:multiply" opacity="0.6">
<path d="M138.483 255.34C137.4 247.581 151.948 242.961 151.948 242.961C203.265 227.09 206.537 178.37 206.537 178.37L205.078 174.612H56.6113C56.6113 177.177 56.8766 180.028 57.363 183.101C63.3326 187.367 71.0268 189.489 78.0577 190.992C91.2793 193.822 104.81 194.772 118.319 194.971C130.192 195.17 141.999 194.75 153.805 193.512C159.51 192.915 170.52 189.931 172.82 197.911C173.815 201.382 172.886 205.228 171.626 208.522C170.343 211.882 168.553 214.976 166.275 217.784C161.345 223.863 154.889 228.482 148.278 232.55C144.917 234.606 141.49 236.573 138.063 238.518C134.769 240.397 131.298 242.188 128.401 244.663C125.395 247.228 121.039 251.87 123.582 256.136C125.792 259.872 130.347 261.198 134.349 261.972C142.22 263.497 150.622 263.607 158.227 266.326C161.898 267.631 165.435 269.753 167.359 273.267C168.619 275.566 169.282 278.064 169.857 280.606H185.069L182.88 275.014C173.793 261.596 139.567 263.099 138.483 255.34Z" fill="#EBE9E3"/>
</g>
<g style="mix-blend-mode:multiply" opacity="0.6">
<path d="M76.112 186.969C87.4764 189.268 99.0398 190.882 110.647 191.169C122.343 191.456 134.106 191.103 145.78 190.506C157.52 189.909 169.26 188.937 180.912 187.367C186.771 186.571 192.564 185.488 198.401 184.604C200.855 184.228 203.353 183.919 205.807 183.41C206.404 180.271 206.537 178.37 206.537 178.37L205.078 174.612H56.6113C56.6113 176.513 56.766 178.547 57.0314 180.736C62.2492 184.847 69.8329 185.709 76.112 186.991V186.969Z" fill="#CDCBC6"/>
</g>
<path d="M213.325 164.334C213.325 164.334 211.622 179.144 208.24 181.089C204.835 183.034 169.415 188.848 114.34 188.605C59.2645 188.362 53.0295 178.658 52.4105 173.861C51.5482 167.163 51.305 164.886 51.305 164.886L213.325 164.311V164.334Z" fill="#F9F5EF"/>
<path d="M56.8324 164.886H51.3271C51.3271 164.886 51.5924 167.163 52.4326 173.883C52.6979 175.917 53.9581 178.835 59.574 181.553C58.7559 175.983 57.8052 170.435 56.8324 164.908V164.886Z" fill="#DDDBD9"/>
<path d="M199.727 164.378C199.373 170.788 198.732 177.177 197.649 183.499C203.619 182.526 207.267 181.642 208.239 181.089C211.644 179.144 213.325 164.334 213.325 164.334L199.705 164.378H199.727Z" fill="#DDDBD9"/>
<path d="M215.469 162.853C211.092 156.928 180.779 152.331 137.002 152.331C93.225 152.331 57.1198 156.928 51.8798 162.853H51.2166V164.334C51.2166 170.965 89.6211 176.337 137.002 176.337C184.383 176.337 216 170.965 216 164.334V162.853H215.447H215.469Z" fill="#C1BFBA"/>
<path d="M216 162.853C216 169.484 184.383 174.856 137.002 174.856C89.6211 174.856 51.2166 169.484 51.2166 162.853C51.2166 156.221 89.6211 150.849 137.002 150.849C184.383 150.849 216 156.221 216 162.853Z" fill="#F9F5EF"/>
<g style="mix-blend-mode:multiply" opacity="0.6">
<path d="M211.401 162.853C211.401 167.03 188.496 168.865 153.275 168.865C118.054 168.865 89.5105 165.483 89.5105 161.305C89.5105 157.127 112.659 153.789 147.858 153.789C183.057 153.789 211.379 158.675 211.379 162.853H211.401Z" fill="#D4D2CD"/>
</g>
<g style="mix-blend-mode:multiply" opacity="0.6">
<path d="M110.692 158.675C113.809 157.194 117.568 157.879 120.884 157.437C126.544 156.685 132.271 156.309 137.975 156.177C149.56 155.912 161.19 156.332 172.753 156.95C182.46 157.459 192.298 158.277 201.872 160.045C204.724 160.576 208.726 161.239 210.738 163.604C210.804 163.67 210.848 163.759 210.893 163.825C211.18 163.516 211.357 163.206 211.357 162.853C211.357 158.675 183.057 153.789 147.836 153.789C112.615 153.789 89.4884 157.149 89.4884 161.305C89.4884 163.427 96.873 165.35 108.746 166.721C107.994 163.604 107.795 160.023 110.669 158.675H110.692Z" fill="#D4D2CD"/>
</g>
<path d="M76 162.634H43.7161C43.7161 162.634 37.647 163.187 38.0162 155.571V93.6774H76V162.634Z" fill="#DDDBD9"/>
<path d="M73.083 159.294H45.0922C45.0922 159.294 39.8301 159.802 40.1617 152.883V96.6257H73.083V159.294Z" fill="#F9F5EF"/>
<path d="M86.9679 160.664C86.9679 161.88 85.995 162.853 84.779 162.853C83.563 162.853 82.5901 161.88 82.5901 160.664C82.5901 159.448 83.563 158.476 84.779 158.476C85.995 158.476 86.9679 159.47 86.9679 160.664Z" fill="#E3E2DC"/>
<path d="M62.7799 105.689C62.7799 109.292 59.8393 112.232 56.2354 112.232C52.6316 112.232 49.691 109.292 49.691 105.689C49.691 102.086 52.6316 99.1457 56.2354 99.1457C59.8393 99.1457 62.7799 102.086 62.7799 105.689Z" fill="#ABAAA8"/>
<path d="M61.6081 105.689C61.6081 108.651 59.1981 111.06 56.2354 111.06C53.2727 111.06 50.8628 108.651 50.8628 105.689C50.8628 102.727 53.2727 100.317 56.2354 100.317C59.1981 100.317 61.6081 102.727 61.6081 105.689Z" fill="#DDDBD9"/>
<g style="mix-blend-mode:screen">
<path d="M56.2354 103.589C56.2354 104.738 55.3068 105.689 54.135 105.689C52.9632 105.689 52.0346 104.76 52.0346 103.589C52.0346 102.417 52.9632 101.489 54.135 101.489C55.3068 101.489 56.2354 102.417 56.2354 103.589Z" fill="#DDDBD9"/>
</g>
</g>
<rect x="13.9847" y="-1" width="266" height="173" rx="30" transform="rotate(4.63666 13.9847 -1)" stroke="#FFD95A" stroke-width="2" stroke-miterlimit="22.9256" stroke-linecap="round" stroke-linejoin="round" stroke-dasharray="4 4"/>
<path d="M47.2988 56.7054L32.3468 87.649C32.3468 87.649 31.1641 90.0966 33.2305 91.4622L38.5478 94.029L54.8267 60.3393L47.2789 56.6958L47.2988 56.7054Z" fill="#DDDBD9"/>
<path d="M44.8907 64.2305L33.8426 87.0949C33.8426 87.0949 32.9676 88.9057 34.4949 89.9129L38.4381 91.8164L50.4669 66.9222L44.8907 64.2305Z" fill="#F9F5EF"/>
</svg>
