<svg width="209" height="145" viewBox="0 0 209 145" fill="none" xmlns="http://www.w3.org/2000/svg">
<path fill-rule="evenodd" clip-rule="evenodd" d="M0 59.3597C0 49.4731 1.16372 39.2957 6.69135 31.1538C11.9281 23.0119 20.365 18.0686 29.0928 13.7068C46.2576 5.27414 65.1679 -0.541551 84.0782 0.0400144C103.279 0.62158 122.481 8.47272 134.409 23.3026C140.518 31.1538 144.591 40.4588 150.992 47.7284C164.956 63.7215 190.558 67.5016 208.886 56.7427C208.014 76.8067 196.667 95.7076 181.248 108.502C165.829 121.587 146.628 129.148 127.136 134.091C103.861 139.907 78.8415 141.651 55.8582 134.963C32.8749 127.984 11.9281 111.41 4.073 88.438C0.872788 79.1329 0 69.2463 0 59.3597Z" fill="#4995DB"/>
<path fill-rule="evenodd" clip-rule="evenodd" d="M122.285 4.35765C126.159 5.51384 129.437 8.11532 131.821 11.2948C134.205 14.4743 136.291 17.9429 137.781 21.4114C139.57 17.0757 138.378 11.8729 135.099 8.40436C132.119 4.64677 127.351 2.6234 122.583 1.75626C120.794 1.46721 119.304 1.46723 117.516 2.04532C120.496 2.62342 119.602 3.49052 122.285 4.35765Z" fill="#4995DB"/>
<path fill-rule="evenodd" clip-rule="evenodd" d="M31.9906 131.622C34.3597 133.323 37.0249 134.457 39.9862 135.591C48.574 139.277 57.1618 142.962 66.638 144.096C61.0115 144.38 55.385 144.096 49.7585 143.246C45.9088 142.679 42.3552 142.112 38.8017 140.411C34.9519 138.71 31.6945 136.158 28.437 133.323C21.9222 127.937 15.7034 121.416 14.5189 113.195C17.7763 117.164 21.0338 120.849 24.5873 124.535C26.9564 127.086 29.3254 129.638 31.9906 131.622Z" fill="#4995DB"/>
<path d="M31.2874 64.3481H27.6993V49.9579H22.2919V46.3572H36.6822V49.9579H31.2874V64.3481ZM46.2422 62.7799C45.9662 63.0308 45.6693 63.2692 45.3515 63.495C45.042 63.7125 44.7158 63.9049 44.3729 64.0721C44.03 64.231 43.6745 64.3565 43.3065 64.4485C42.9468 64.5489 42.5788 64.5991 42.2024 64.5991C41.3744 64.5991 40.5965 64.4527 39.8689 64.16C39.1412 63.8672 38.5014 63.4532 37.9493 62.9179C37.4057 62.3742 36.9749 61.7177 36.6571 60.9482C36.3476 60.1703 36.1929 59.3005 36.1929 58.3386V50.9114H39.6054V58.3386C39.6054 58.7903 39.6723 59.1959 39.8061 59.5556C39.9483 59.9069 40.1365 60.2038 40.3707 60.4463C40.6049 60.6889 40.8767 60.8729 41.1862 60.9984C41.504 61.1238 41.8428 61.1866 42.2024 61.1866C42.5537 61.1866 42.8841 61.1071 43.1936 60.9482C43.5114 60.7809 43.7874 60.5634 44.0216 60.2958C44.2558 60.0281 44.4398 59.727 44.5736 59.3925C44.7074 59.0496 44.7744 58.6983 44.7744 58.3386V50.9114H48.1994V64.3481H47.3714L46.2422 62.7799ZM54.2466 64.3481H50.8215V50.9114H51.6496L52.7787 52.5047C53.3307 52.0029 53.958 51.6181 54.6606 51.3505C55.3632 51.0745 56.0908 50.9365 56.8436 50.9365H59.8672V54.349H56.8436C56.4839 54.349 56.1452 54.4159 55.8274 54.5497C55.5095 54.6835 55.2335 54.8676 54.9993 55.1017C54.7651 55.3359 54.5811 55.6119 54.4473 55.9298C54.3135 56.2476 54.2466 56.5864 54.2466 56.946V64.3481ZM64.8856 64.3481H61.4605V50.9114H62.2886L63.4177 52.2162C63.9697 51.7143 64.5928 51.3296 65.2871 51.0619C65.9896 50.7859 66.7215 50.6479 67.4826 50.6479C68.3023 50.6479 69.0759 50.8068 69.8036 51.1247C70.5313 51.4341 71.1669 51.8649 71.7106 52.4169C72.2543 52.9606 72.6808 53.6004 72.9903 54.3364C73.3081 55.0641 73.467 55.842 73.467 56.67V64.3481H70.042V56.67C70.042 56.3187 69.9751 55.9883 69.8413 55.6789C69.7074 55.361 69.5234 55.085 69.2892 54.8508C69.055 54.6166 68.7832 54.4326 68.4737 54.2988C68.1643 54.165 67.8339 54.0981 67.4826 54.0981C67.123 54.0981 66.7842 54.165 66.4664 54.2988C66.1485 54.4326 65.8725 54.6166 65.6383 54.8508C65.4042 55.085 65.2201 55.361 65.0863 55.6789C64.9525 55.9883 64.8856 56.3187 64.8856 56.67V64.3481ZM92.9886 62.7799C92.7126 63.0308 92.4157 63.2692 92.0978 63.495C91.7884 63.7125 91.4622 63.9049 91.1193 64.0721C90.7763 64.231 90.4209 64.3565 90.0529 64.4485C89.6932 64.5489 89.3252 64.5991 88.9488 64.5991C88.1208 64.5991 87.3429 64.4527 86.6152 64.16C85.8876 63.8672 85.2477 63.4532 84.6957 62.9179C84.1521 62.3742 83.7213 61.7177 83.4035 60.9482C83.094 60.1703 82.9393 59.3005 82.9393 58.3386V50.9114H86.3518V58.3386C86.3518 58.7903 86.4187 59.1959 86.5525 59.5556C86.6947 59.9069 86.8829 60.2038 87.1171 60.4463C87.3513 60.6889 87.6231 60.8729 87.9326 60.9984C88.2504 61.1238 88.5892 61.1866 88.9488 61.1866C89.3001 61.1866 89.6305 61.1071 89.9399 60.9482C90.2578 60.7809 90.5338 60.5634 90.768 60.2958C91.0022 60.0281 91.1862 59.727 91.32 59.3925C91.4538 59.0496 91.5207 58.6983 91.5207 58.3386V50.9114H94.9458V64.3481H94.1178L92.9886 62.7799ZM101.018 69.4669H97.5679V50.9114H98.3959L99.7634 52.5298C100.073 52.2371 100.412 51.9611 100.78 51.7018C101.148 51.4425 101.528 51.2209 101.921 51.0368C102.323 50.8445 102.737 50.6939 103.163 50.5852C103.59 50.4765 104.021 50.4221 104.456 50.4221C105.401 50.4221 106.287 50.5936 107.115 50.9365C107.952 51.271 108.679 51.7478 109.298 52.3667C109.926 52.9857 110.419 53.7342 110.779 54.6125C111.138 55.4823 111.318 56.4483 111.318 57.5106C111.318 58.6146 111.138 59.6099 110.779 60.4965C110.419 61.3747 109.926 62.1233 109.298 62.7423C108.679 63.3528 107.952 63.8212 107.115 64.1474C106.287 64.4736 105.401 64.6367 104.456 64.6367C104.155 64.6367 103.853 64.6032 103.552 64.5363C103.26 64.4694 102.967 64.3816 102.674 64.2729C102.39 64.1558 102.105 64.0261 101.821 63.8839C101.545 63.7418 101.277 63.5954 101.018 63.4448V69.4669ZM107.881 57.5106C107.881 56.9418 107.789 56.4316 107.605 55.98C107.429 55.5283 107.186 55.1477 106.877 54.8383C106.568 54.5204 106.204 54.2779 105.786 54.1106C105.367 53.9433 104.924 53.8597 104.456 53.8597C103.987 53.8597 103.544 53.9433 103.126 54.1106C102.716 54.2779 102.356 54.5204 102.047 54.8383C101.737 55.1477 101.491 55.5283 101.307 55.98C101.131 56.4316 101.043 56.9418 101.043 57.5106C101.043 58.0542 101.131 58.5519 101.307 59.0036C101.491 59.4552 101.737 59.84 102.047 60.1578C102.356 60.4756 102.716 60.7224 103.126 60.898C103.544 61.0736 103.987 61.1615 104.456 61.1615C104.924 61.1615 105.367 61.0736 105.786 60.898C106.204 60.7224 106.568 60.4756 106.877 60.1578C107.186 59.84 107.429 59.4552 107.605 59.0036C107.789 58.5519 107.881 58.0542 107.881 57.5106Z" fill="white"/>
<path d="M36.356 87.7518C36.356 88.7555 36.1762 89.6922 35.8165 90.5621C35.4569 91.4236 34.9676 92.1722 34.3486 92.8078C33.7297 93.4351 33.002 93.9328 32.1656 94.3008C31.3376 94.6604 30.4468 94.8403 29.4933 94.8403C28.5482 94.8403 27.6574 94.6604 26.821 94.3008C25.993 93.9328 25.2653 93.4351 24.638 92.8078C24.0191 92.1722 23.5298 91.4236 23.1701 90.5621C22.8105 89.6922 22.6307 88.7555 22.6307 87.7518C22.6307 86.7314 22.8105 85.7862 23.1701 84.9164C23.5298 84.0465 24.0191 83.298 24.638 82.6707C25.2653 82.035 25.993 81.5373 26.821 81.1777C27.6574 80.818 28.5482 80.6382 29.4933 80.6382C30.4468 80.6382 31.3376 80.8097 32.1656 81.1526C33.002 81.4872 33.7297 81.9681 34.3486 82.5954C34.9676 83.2143 35.4569 83.9629 35.8165 84.8411C36.1762 85.711 36.356 86.6812 36.356 87.7518ZM32.9058 87.7518C32.9058 87.1998 32.8138 86.7021 32.6298 86.2588C32.4542 85.8072 32.2116 85.4224 31.9022 85.1046C31.5927 84.7784 31.2289 84.5316 30.8107 84.3644C30.4008 84.1887 29.9617 84.1009 29.4933 84.1009C29.0249 84.1009 28.5817 84.1887 28.1635 84.3644C27.7536 84.5316 27.394 84.7784 27.0845 85.1046C26.7834 85.4224 26.545 85.8072 26.3694 86.2588C26.1937 86.7021 26.1059 87.1998 26.1059 87.7518C26.1059 88.2704 26.1937 88.7513 26.3694 89.1946C26.545 89.6379 26.7834 90.0226 27.0845 90.3488C27.394 90.675 27.7536 90.9343 28.1635 91.1267C28.5817 91.3107 29.0249 91.4027 29.4933 91.4027C29.9617 91.4027 30.4008 91.3149 30.8107 91.1392C31.2289 90.9636 31.5927 90.7168 31.9022 90.399C32.2116 90.0812 32.4542 89.6964 32.6298 89.2448C32.8138 88.7931 32.9058 88.2954 32.9058 87.7518ZM41.6755 94.5894H38.2504V81.1526H39.0785L40.2076 82.4574C40.7596 81.9555 41.3828 81.5708 42.077 81.3031C42.7795 81.0271 43.5114 80.8891 44.2725 80.8891C45.0922 80.8891 45.8659 81.048 46.5935 81.3659C47.3212 81.6753 47.9569 82.1061 48.5005 82.6581C49.0442 83.2018 49.4707 83.8416 49.7802 84.5777C50.098 85.3053 50.257 86.0832 50.257 86.9112V94.5894H46.8319V86.9112C46.8319 86.5599 46.765 86.2295 46.6312 85.9201C46.4973 85.6022 46.3133 85.3262 46.0791 85.092C45.8449 84.8578 45.5731 84.6738 45.2636 84.54C44.9542 84.4062 44.6238 84.3393 44.2725 84.3393C43.9129 84.3393 43.5741 84.4062 43.2563 84.54C42.9385 84.6738 42.6624 84.8578 42.4283 85.092C42.1941 85.3262 42.0101 85.6022 41.8762 85.9201C41.7424 86.2295 41.6755 86.5599 41.6755 86.9112V94.5894ZM66.642 94.5894C65.814 94.5894 65.0361 94.4346 64.3085 94.1252C63.5808 93.8073 62.941 93.3766 62.3889 92.8329C61.8453 92.2809 61.4145 91.641 61.0967 90.9134C60.7872 90.1857 60.6325 89.4079 60.6325 88.5798V84.5902H58.9639V81.1777H60.6325V75.808H64.045V81.1777H69.239V84.5902H64.045V88.5798C64.045 88.9395 64.1119 89.2782 64.2457 89.596C64.3796 89.9055 64.5636 90.1773 64.7978 90.4115C65.032 90.6457 65.308 90.8339 65.6258 90.9761C65.9436 91.1099 66.2824 91.1768 66.642 91.1768H69.239V94.5894H66.642ZM74.5962 94.5894H71.1711V75.808H74.5962V81.7423C75.006 81.4328 75.4284 81.2153 75.8633 81.0899C76.2983 80.956 76.7415 80.8891 77.1932 80.8891C78.0212 80.8891 78.7991 81.048 79.5268 81.3659C80.2544 81.6753 80.8859 82.1061 81.4212 82.6581C81.9649 83.2018 82.3914 83.8416 82.7009 84.5777C83.0187 85.3053 83.1776 86.0832 83.1776 86.9112V94.5894H79.7275V86.9112H79.7526C79.7526 86.5599 79.6857 86.2295 79.5519 85.9201C79.418 85.6022 79.234 85.3262 78.9998 85.092C78.7656 84.8578 78.4938 84.6738 78.1843 84.54C77.8749 84.4062 77.5445 84.3393 77.1932 84.3393C76.8336 84.3393 76.4948 84.4062 76.177 84.54C75.8591 84.6738 75.5831 84.8578 75.3489 85.092C75.1148 85.3262 74.9307 85.6022 74.7969 85.9201C74.6631 86.2295 74.5962 86.5599 74.5962 86.9112V94.5894ZM90.9687 91.3023C91.1025 91.3441 91.2364 91.3734 91.3702 91.3901C91.504 91.3985 91.6378 91.4027 91.7717 91.4027C92.1062 91.4027 92.4282 91.3567 92.7377 91.2647C93.0472 91.1727 93.3357 91.043 93.6034 90.8757C93.8794 90.7001 94.1219 90.491 94.331 90.2484C94.5485 89.9975 94.7241 89.7215 94.858 89.4204L97.3672 91.9422C97.0493 92.3938 96.6813 92.7995 96.2631 93.1591C95.8533 93.5188 95.4058 93.824 94.9207 94.075C94.444 94.3259 93.9379 94.5141 93.4026 94.6395C92.8757 94.7734 92.332 94.8403 91.7717 94.8403C90.8265 94.8403 89.9358 94.6646 89.0994 94.3133C88.2713 93.9621 87.5437 93.4728 86.9164 92.8455C86.2974 92.2182 85.8081 91.4738 85.4485 90.6123C85.0888 89.7424 84.909 88.7889 84.909 87.7518C84.909 86.6896 85.0888 85.7193 85.4485 84.8411C85.8081 83.9629 86.2974 83.2143 86.9164 82.5954C87.5437 81.9764 88.2713 81.4955 89.0994 81.1526C89.9358 80.8097 90.8265 80.6382 91.7717 80.6382C92.332 80.6382 92.8799 80.7051 93.4152 80.8389C93.9505 80.9728 94.4565 81.1651 94.9332 81.4161C95.4184 81.667 95.87 81.9764 96.2882 82.3445C96.7064 82.7041 97.0744 83.1098 97.3923 83.5614L90.9687 91.3023ZM92.7251 84.2389C92.5662 84.1804 92.4073 84.1427 92.2484 84.126C92.0978 84.1093 91.9389 84.1009 91.7717 84.1009C91.3033 84.1009 90.86 84.1887 90.4418 84.3644C90.0319 84.5316 89.6723 84.7742 89.3628 85.092C89.0617 85.4099 88.8233 85.7946 88.6477 86.2463C88.4721 86.6896 88.3842 87.1914 88.3842 87.7518C88.3842 87.8772 88.3884 88.0194 88.3968 88.1784C88.4135 88.3373 88.4344 88.5004 88.4595 88.6676C88.493 88.8266 88.5306 88.9813 88.5724 89.1318C88.6142 89.2824 88.6686 89.4162 88.7355 89.5333L92.7251 84.2389ZM113.062 94.5894C112.234 94.5894 111.456 94.4346 110.729 94.1252C110.001 93.8073 109.361 93.3766 108.809 92.8329C108.265 92.2809 107.835 91.641 107.517 90.9134C107.207 90.1857 107.053 89.4079 107.053 88.5798V84.5902H105.384V81.1777H107.053V75.808H110.465V81.1777H115.659V84.5902H110.465V88.5798C110.465 88.9395 110.532 89.2782 110.666 89.596C110.8 89.9055 110.984 90.1773 111.218 90.4115C111.452 90.6457 111.728 90.8339 112.046 90.9761C112.364 91.1099 112.703 91.1768 113.062 91.1768H115.659V94.5894H113.062ZM130.576 87.7518C130.576 88.7555 130.397 89.6922 130.037 90.5621C129.677 91.4236 129.188 92.1722 128.569 92.8078C127.95 93.4351 127.222 93.9328 126.386 94.3008C125.558 94.6604 124.667 94.8403 123.714 94.8403C122.769 94.8403 121.878 94.6604 121.041 94.3008C120.213 93.9328 119.486 93.4351 118.858 92.8078C118.24 92.1722 117.75 91.4236 117.391 90.5621C117.031 89.6922 116.851 88.7555 116.851 87.7518C116.851 86.7314 117.031 85.7862 117.391 84.9164C117.75 84.0465 118.24 83.298 118.858 82.6707C119.486 82.035 120.213 81.5373 121.041 81.1777C121.878 80.818 122.769 80.6382 123.714 80.6382C124.667 80.6382 125.558 80.8097 126.386 81.1526C127.222 81.4872 127.95 81.9681 128.569 82.5954C129.188 83.2143 129.677 83.9629 130.037 84.8411C130.397 85.711 130.576 86.6812 130.576 87.7518ZM127.126 87.7518C127.126 87.1998 127.034 86.7021 126.85 86.2588C126.675 85.8072 126.432 85.4224 126.123 85.1046C125.813 84.7784 125.449 84.5316 125.031 84.3644C124.621 84.1887 124.182 84.1009 123.714 84.1009C123.245 84.1009 122.802 84.1887 122.384 84.3644C121.974 84.5316 121.614 84.7784 121.305 85.1046C121.004 85.4224 120.765 85.8072 120.59 86.2588C120.414 86.7021 120.326 87.1998 120.326 87.7518C120.326 88.2704 120.414 88.7513 120.59 89.1946C120.765 89.6379 121.004 90.0226 121.305 90.3488C121.614 90.675 121.974 90.9343 122.384 91.1267C122.802 91.3107 123.245 91.4027 123.714 91.4027C124.182 91.4027 124.621 91.3149 125.031 91.1392C125.449 90.9636 125.813 90.7168 126.123 90.399C126.432 90.0812 126.675 89.6964 126.85 89.2448C127.034 88.7931 127.126 88.2954 127.126 87.7518ZM136.511 77.5017C136.511 77.8195 136.448 78.1165 136.322 78.3925C136.205 78.6685 136.042 78.911 135.833 79.1201C135.624 79.3209 135.377 79.484 135.093 79.6094C134.817 79.7265 134.52 79.7851 134.202 79.7851C133.884 79.7851 133.583 79.7265 133.299 79.6094C133.023 79.484 132.78 79.3209 132.571 79.1201C132.37 78.911 132.207 78.6685 132.082 78.3925C131.965 78.1165 131.906 77.8195 131.906 77.5017C131.906 77.1922 131.965 76.8995 132.082 76.6235C132.207 76.3391 132.37 76.0966 132.571 75.8958C132.78 75.6867 133.023 75.5236 133.299 75.4065C133.583 75.2811 133.884 75.2183 134.202 75.2183C134.52 75.2183 134.817 75.2811 135.093 75.4065C135.377 75.5236 135.624 75.6867 135.833 75.8958C136.042 76.0966 136.205 76.3391 136.322 76.6235C136.448 76.8995 136.511 77.1922 136.511 77.5017ZM135.921 94.5894H132.471V81.1526H135.921V94.5894ZM141.993 94.5894H138.543V75.808H141.993V94.5894ZM149.96 91.3023C150.094 91.3441 150.228 91.3734 150.361 91.3901C150.495 91.3985 150.629 91.4027 150.763 91.4027C151.097 91.4027 151.419 91.3567 151.729 91.2647C152.038 91.1727 152.327 91.043 152.595 90.8757C152.871 90.7001 153.113 90.491 153.322 90.2484C153.54 89.9975 153.715 89.7215 153.849 89.4204L156.358 91.9422C156.041 92.3938 155.673 92.7995 155.254 93.1591C154.845 93.5188 154.397 93.824 153.912 94.075C153.435 94.3259 152.929 94.5141 152.394 94.6395C151.867 94.7734 151.323 94.8403 150.763 94.8403C149.818 94.8403 148.927 94.6646 148.091 94.3133C147.263 93.9621 146.535 93.4728 145.908 92.8455C145.289 92.2182 144.799 91.4738 144.44 90.6123C144.08 89.7424 143.9 88.7889 143.9 87.7518C143.9 86.6896 144.08 85.7193 144.44 84.8411C144.799 83.9629 145.289 83.2143 145.908 82.5954C146.535 81.9764 147.263 81.4955 148.091 81.1526C148.927 80.8097 149.818 80.6382 150.763 80.6382C151.323 80.6382 151.871 80.7051 152.406 80.8389C152.942 80.9728 153.448 81.1651 153.925 81.4161C154.41 81.667 154.861 81.9764 155.279 82.3445C155.698 82.7041 156.066 83.1098 156.384 83.5614L149.96 91.3023ZM151.716 84.2389C151.558 84.1804 151.399 84.1427 151.24 84.126C151.089 84.1093 150.93 84.1009 150.763 84.1009C150.295 84.1009 149.851 84.1887 149.433 84.3644C149.023 84.5316 148.664 84.7742 148.354 85.092C148.053 85.4099 147.815 85.7946 147.639 86.2463C147.463 86.6896 147.376 87.1914 147.376 87.7518C147.376 87.8772 147.38 88.0194 147.388 88.1784C147.405 88.3373 147.426 88.5004 147.451 88.6676C147.484 88.8266 147.522 88.9813 147.564 89.1318C147.606 89.2824 147.66 89.4162 147.727 89.5333L151.716 84.2389ZM164.852 94.5894C164.024 94.5894 163.246 94.4346 162.519 94.1252C161.791 93.8073 161.151 93.3766 160.599 92.8329C160.055 92.2809 159.625 91.641 159.307 90.9134C158.997 90.1857 158.843 89.4079 158.843 88.5798V84.5902H157.174V81.1777H158.843V75.808H162.255V81.1777H167.449V84.5902H162.255V88.5798C162.255 88.9395 162.322 89.2782 162.456 89.596C162.59 89.9055 162.774 90.1773 163.008 90.4115C163.242 90.6457 163.518 90.8339 163.836 90.9761C164.154 91.1099 164.492 91.1768 164.852 91.1768H167.449V94.5894H164.852Z" fill="white"/>
</svg>
