<svg width="124" height="277" viewBox="0 0 124 277" fill="none" xmlns="http://www.w3.org/2000/svg">
<path opacity="0.95" fill-rule="evenodd" clip-rule="evenodd" d="M120.674 107.201C113.636 90.2105 101.166 75.7027 85.0406 63.6961C66.6115 49.9743 53.0891 32.0723 47.929 12.5625L48.7545 6.64893C48.8543 4.11197 47.1766 1.55698 44.2471 0.681428C41.3177 -0.19412 38.9143 0.627589 39.4403 2.32487L-20.0434 233.525C-23.925 226.718 -28.4325 220.751 -35.3434 215.605C-50.843 202.759 -68.2202 192.432 -85.7969 187.178C-126.183 174.081 -160.258 181.351 -162.934 204.166C-164.884 223.604 -140.37 248.385 -108.346 263.09C-103.113 265.681 -97.2535 267.432 -92.0204 270.022C-73.2918 276.133 -55.6155 278.85 -40.043 274.777C-26.3478 273.223 -17.1601 265.702 -14.8834 253.035L27.0583 91.0286C34.0959 108.019 47.092 124.224 63.2174 136.231C82.7983 150.81 96.8468 170.41 101.381 190.759C101.907 192.457 103.059 193.314 104.211 194.172L105.363 195.029C107.14 195.047 108.918 195.065 108.392 193.368L122.505 135.983C125.208 127.551 123.83 117.385 120.674 107.201Z" fill="#E6E6E6"/>
</svg>
