<svg width="71" height="127" viewBox="0 0 71 127" fill="none" xmlns="http://www.w3.org/2000/svg">
<path fill-rule="evenodd" clip-rule="evenodd" d="M65.0087 96.2388C66.7363 95.8559 67.6326 94.449 67.2494 92.7214L47.321 2.89031C46.9378 1.16279 45.5306 0.266357 43.803 0.649231L-27.6049 16.4747C-29.3325 16.8576 -30.2287 18.2645 -29.8455 19.992C-29.4623 21.7195 -28.055 22.616 -26.3274 22.2331L42.2011 7.04576L61.4907 93.9977C61.8739 95.7252 63.2811 96.6216 65.0087 96.2388Z" fill="#E7E7E7"/>
<path fill-rule="evenodd" clip-rule="evenodd" d="M-12.5353 100.733C-14.3284 108.985 -5.69374 117.949 6.97283 120.581C19.6394 123.214 30.6442 118.359 32.3096 109.531C34.1027 101.278 25.468 92.3145 12.8014 89.6822C0.134866 87.0499 -10.87 91.9047 -12.5353 100.733Z" fill="#E7E7E7"/>
<path fill-rule="evenodd" clip-rule="evenodd" d="M-22.8784 37.7807L48.5295 21.9552C50.2571 21.5724 51.1533 20.1654 50.7701 18.4379C50.3868 16.7104 48.9796 15.814 47.252 16.1968L-24.1558 32.0223C-25.8835 32.4052 -26.7797 33.8121 -26.3965 35.5396C-26.0132 37.2671 -24.606 38.1636 -22.8784 37.7807Z" fill="#E7E7E7"/>
</svg>
