<svg width="70" height="293" viewBox="0 0 70 293" fill="none" xmlns="http://www.w3.org/2000/svg">
<path opacity="0.95" fill-rule="evenodd" clip-rule="evenodd" d="M166.265 38.5927C151.032 29.5457 133.029 25.5247 113.641 25.5247C91.4828 25.5247 70.71 19.4935 55.4765 7.43095L52.7068 2.40488C51.322 0.394451 48.5523 -0.610885 45.7825 0.394329C43.0128 1.39954 41.628 3.40991 43.0129 4.41512L130.259 216.515C123.335 213.5 116.41 211.489 108.101 211.489C88.7132 210.484 69.3252 212.495 52.7068 218.526C13.9308 231.594 -8.22697 256.724 2.85191 275.823C12.5459 291.906 45.7825 296.933 79.0191 289.896C84.5585 288.891 90.0982 286.88 95.6376 285.875C113.641 279.844 128.874 271.802 138.568 259.74C148.262 250.693 151.032 239.635 145.492 228.578L84.5587 79.8062C99.7921 88.8531 119.18 93.8794 138.568 93.8794C162.111 93.8794 184.269 100.916 199.502 113.984C200.887 114.989 202.272 114.989 203.656 114.989H205.041C206.426 113.983 207.811 112.978 206.426 111.973L184.269 59.7019C181.499 51.6602 174.574 44.6239 166.265 38.5927Z" fill="#E6E6E6"/>
</svg>
