<svg width="27" height="21" viewBox="0 0 27 21" fill="none" xmlns="http://www.w3.org/2000/svg">
<path d="M22.2014 1.7114C20.5181 0.925586 18.7183 0.354486 16.8366 0.0292969C16.6055 0.446178 16.3355 1.00689 16.1493 1.45294C14.149 1.15279 12.1671 1.15279 10.2036 1.45294C10.0175 1.00689 9.74135 0.446178 9.50819 0.0292969C7.62444 0.354486 5.82251 0.927684 4.1392 1.71556C0.743964 6.83476 -0.17643 11.8268 0.283768 16.748C2.53567 18.4259 4.71803 19.4452 6.86357 20.1121C7.39331 19.3847 7.86577 18.6114 8.27278 17.7964C7.49761 17.5025 6.75517 17.1398 6.05364 16.7188C6.23975 16.5812 6.4218 16.4374 6.59768 16.2894C10.8765 18.2862 15.5255 18.2862 19.7532 16.2894C19.9311 16.4374 20.1132 16.5812 20.2972 16.7188C19.5936 17.1419 18.8492 17.5046 18.074 17.7985C18.481 18.6114 18.9514 19.3868 19.4832 20.1142C21.6308 19.4472 23.8152 18.428 26.0671 16.748C26.6071 11.0431 25.1447 6.09689 22.2014 1.7114ZM8.85571 13.7215C7.57126 13.7215 6.5179 12.5251 6.5179 11.0681C6.5179 9.61112 7.54877 8.41262 8.85571 8.41262C10.1627 8.41262 11.216 9.60903 11.1935 11.0681C11.1956 12.5251 10.1627 13.7215 8.85571 13.7215ZM17.4952 13.7215C16.2107 13.7215 15.1574 12.5251 15.1574 11.0681C15.1574 9.61112 16.1882 8.41262 17.4952 8.41262C18.8021 8.41262 19.8555 9.60903 19.833 11.0681C19.833 12.5251 18.8021 13.7215 17.4952 13.7215Z" fill="white"/>
</svg>
